<svg class="svg-plant" viewBox="0 0 1 1" preserveAspectRatio="xMidYMax meet" xmlns="http://www.w3.org/2000/svg" xmlns:xlink="http://www.w3.org/1999/xlink"><svg class="svg-plant-pot" viewBox="0 0 100 100" preserveAspectRatio="xMidYMax meet" xmlns="http://www.w3.org/2000/svg" xmlns:xlink="http://www.w3.org/1999/xlink" x="0" y="0.6699999999999999" width="1" height="0.33"><path fill="#fc7" stroke="#da5" stroke-width="2" d="M 1 1 L 99 1 L 97 20 L 95 20 L 84 99 L 16 99 L 5 20 L 3 20 Z"></path></svg><svg class="svg-plant-body" viewBox="-30500 -66000 61000 66000" preserveAspectRatio="xMidYMax meet" xmlns="http://www.w3.org/2000/svg" xmlns:xlink="http://www.w3.org/1999/xlink" x="0" y="0" width="1" height="0.6699999999999999"><path fill="#400" stroke="#931" stroke-width="75" d="M -1131 0 L -1263 -10011 L -263 -9987 L -131 0 Z"></path><path fill="#400" stroke="#931" stroke-width="75" d="M -1263 -10011 L -1019 -19959 L -22 -20034 L -263 -9987 Z"></path><path fill="#400" stroke="#931" stroke-width="75" d="M -1019 -19959 L -1772 -29935 L -775 -30000 L -22 -20034 Z"></path><path fill="#400" stroke="#931" stroke-width="75" d="M -1772 -29935 L -2420 -39880 L -1429 -40013 L -775 -30000 Z"></path><path stroke="#0000FF" fill="#0000FF" stroke-width="200" fill-opacity="0.6" d="M -1892 -39448 C 324 -41618 -2903 -43458 -3177 -44454 C -2938 -43449 -4879 -40282 -1892 -39448"></path><path stroke="#FF00FF" fill="#FF00FF" stroke-width="200" fill-opacity="0.6" d="M -967 -23502 C 3412 -23102 2436 -28277 3260 -29488 C 2394 -28306 -2809 -27495 -967 -23502"></path><path stroke="#FF00FF" fill="#FF00FF" stroke-width="200" fill-opacity="0.6" d="M -453 -16836 C 3656 -17014 2102 -21689 2714 -22916 C 2060 -21711 -2662 -20306 -453 -16836"></path><path fill="#400" stroke="#931" stroke-width="75" d="M -1263 -10011 L 5347 -17919 L 5890 -17477 L -263 -9987 Z"></path><path fill="#400" stroke="#931" stroke-width="75" d="M 5347 -17919 L 10143 -23786 L 10574 -23235 L 5890 -17477 Z"></path><path fill="#400" stroke="#931" stroke-width="75" d="M 10143 -23786 L 14569 -27242 L 15014 -26702 L 10574 -23235 Z"></path><path fill="#400" stroke="#931" stroke-width="75" d="M 14569 -27242 L 17857 -29947 L 18240 -29361 L 15014 -26702 Z"></path><path fill="#400" stroke="#931" stroke-width="75" d="M -1772 -29935 L -9270 -35891 L -8925 -36500 L -775 -30000 Z"></path><path fill="#400" stroke="#931" stroke-width="75" d="M -9270 -35891 L -15814 -39589 L -15440 -40181 L -8925 -36500 Z"></path><path fill="#400" stroke="#931" stroke-width="75" d="M -15814 -39589 L -20521 -42571 L -20241 -43213 L -15440 -40181 Z"></path><path stroke="#FF00FF" fill="#FF00FF" stroke-width="200" fill-opacity="0.6" d="M -20143 -42742 C -19992 -46155 -23973 -45209 -24943 -45804 C -23994 -45175 -23175 -41166 -20143 -42742"></path><path stroke="#800080" fill="#800080" stroke-width="200" fill-opacity="0.6" d="M -17078 -40887 C -19396 -44515 -22815 -40654 -24247 -40564 C -22813 -40604 -19061 -37065 -17078 -40887"></path><path stroke="#FFFF00" fill="#FFFF00" stroke-width="200" fill-opacity="0.6" d="M -5801 -33693 C -7830 -37175 -11175 -33694 -12518 -33665 C -11175 -33647 -7802 -30194 -5801 -33693"></path><path stroke="#FF0000" fill="#FF0000" stroke-width="200" fill-opacity="0.6" d="M -6267 -33729 C -4089 -37059 -8639 -38475 -9257 -39648 C -8680 -38454 -10240 -33951 -6267 -33729"></path><path stroke="#FFFF00" fill="#FFFF00" stroke-width="200" fill-opacity="0.6" d="M 12641 -25443 C 15906 -25821 14399 -29458 14816 -30471 C 14363 -29473 10681 -28081 12641 -25443"></path><path stroke="#800080" fill="#800080" stroke-width="200" fill-opacity="0.6" d="M 8134 -20614 C 10254 -18488 12006 -21627 12969 -21901 C 11997 -21661 8915 -23512 8134 -20614"></path><path stroke="#C0C0C0" fill="#C0C0C0" stroke-width="200" fill-opacity="0.6" d="M 1626 -12668 C 4779 -9540 7347 -14200 8769 -14614 C 7333 -14250 2758 -16964 1626 -12668"></path><path stroke="#FF00FF" fill="#FF00FF" stroke-width="200" fill-opacity="0.6" d="M 1370 -12645 C 5089 -13551 2825 -17538 3162 -18769 C 2782 -17551 -1275 -15414 1370 -12645"></path><path fill="#400" stroke="#931" stroke-width="75" d="M 5347 -17919 L 11596 -17381 L 11596 -16981 L 5890 -17477 Z"></path><path fill="#400" stroke="#931" stroke-width="75" d="M 11596 -17381 L 16145 -17374 L 16047 -16986 L 11596 -16981 Z"></path><path fill="#400" stroke="#931" stroke-width="75" d="M 14569 -27242 L 15692 -30183 L 16090 -30143 L 15014 -26702 Z"></path><path fill="#400" stroke="#931" stroke-width="75" d="M 15692 -30183 L 15942 -32721 L 16334 -32643 L 16090 -30143 Z"></path><path stroke="#00FF00" fill="#00FF00" stroke-width="200" fill-opacity="0.6" d="M 15394 -28729 C 17430 -31475 13599 -32919 13128 -33957 C 13563 -32903 11998 -29120 15394 -28729"></path><path stroke="#00FF00" fill="#00FF00" stroke-width="200" fill-opacity="0.6" d="M 15871 -17180 C 17333 -13781 20768 -16581 21995 -16458 C 20773 -16624 18084 -20146 15871 -17180"></path><path stroke="#800080" fill="#800080" stroke-width="200" fill-opacity="0.6" d="M 14195 -17100 C 12991 -14258 16660 -13805 17294 -12995 C 16689 -13827 17258 -17479 14195 -17100"></path><path fill="#400" stroke="#931" stroke-width="75" d="M 11596 -17381 L 14160 -14666 L 14103 -14584 L 11596 -16981 Z"></path></svg></svg>