<svg class="svg-plant" viewBox="0 0 1 1" preserveAspectRatio="xMidYMax meet" xmlns="http://www.w3.org/2000/svg" xmlns:xlink="http://www.w3.org/1999/xlink"><svg class="svg-plant-pot" viewBox="0 0 100 100" preserveAspectRatio="xMidYMax meet" xmlns="http://www.w3.org/2000/svg" xmlns:xlink="http://www.w3.org/1999/xlink" x="0" y="0.6699999999999999" width="1" height="0.33"><path fill="#fc7" stroke="#da5" stroke-width="2" d="M 1 1 L 99 1 L 97 20 L 95 20 L 84 99 L 16 99 L 5 20 L 3 20 Z"></path></svg><svg class="svg-plant-body" viewBox="-30500 -66000 61000 66000" preserveAspectRatio="xMidYMax meet" xmlns="http://www.w3.org/2000/svg" xmlns:xlink="http://www.w3.org/1999/xlink" x="0" y="0" width="1" height="0.6699999999999999"><path fill="#400" stroke="#931" stroke-width="75" d="M 3684 0 L 4559 -9937 L 5558 -9986 L 4684 0 Z"></path><path fill="#400" stroke="#931" stroke-width="75" d="M 4559 -9937 L 4071 -19929 L 5070 -19970 L 5558 -9986 Z"></path><path fill="#400" stroke="#931" stroke-width="75" d="M 4071 -19929 L 3663 -29891 L 4658 -29991 L 5070 -19970 Z"></path><path fill="#400" stroke="#931" stroke-width="75" d="M 3663 -29891 L 2662 -39892 L 3662 -39891 L 4658 -29991 Z"></path><path fill="#400" stroke="#931" stroke-width="75" d="M 2662 -39892 L 2671 -49854 L 3669 -49929 L 3662 -39891 Z"></path><path stroke="#FFA500" fill="#FFA500" stroke-width="200" fill-opacity="0.6" d="M 3170 -49391 C 6996 -51640 3150 -55309 3113 -56788 C 3099 -55308 -691 -51581 3170 -49391"></path><path stroke="#0000FF" fill="#0000FF" stroke-width="200" fill-opacity="0.6" d="M 2976 -45600 C 4154 -49570 -806 -49624 -1773 -50610 C -841 -49591 -1052 -44635 2976 -45600"></path><path stroke="#800080" fill="#800080" stroke-width="200" fill-opacity="0.6" d="M 3681 -34385 C 7580 -34656 5988 -39058 6539 -40239 C 5947 -39078 1496 -37626 3681 -34385"></path><path stroke="#00FF00" fill="#00FF00" stroke-width="200" fill-opacity="0.6" d="M 3808 -33661 C 5738 -37402 795 -38396 16 -39563 C 754 -38370 -397 -33461 3808 -33661"></path><path stroke="#FF0000" fill="#FF0000" stroke-width="200" fill-opacity="0.6" d="M 4659 -23301 C 6660 -26394 2441 -27684 1862 -28767 C 2402 -27665 980 -23488 4659 -23301"></path><path fill="#400" stroke="#931" stroke-width="75" d="M 4071 -19929 L -4035 -24891 L -3817 -25556 L 5070 -19970 Z"></path><path fill="#400" stroke="#931" stroke-width="75" d="M -4035 -24891 L -11181 -27229 L -10928 -27882 L -3817 -25556 Z"></path><path fill="#400" stroke="#931" stroke-width="75" d="M -11181 -27229 L -16384 -29249 L -16214 -29928 L -10928 -27882 Z"></path><path fill="#400" stroke="#931" stroke-width="75" d="M 3663 -29891 L -4002 -35692 L -3613 -36274 L 4658 -29991 Z"></path><path fill="#400" stroke="#931" stroke-width="75" d="M -4002 -35692 L -10301 -39917 L -9783 -40387 L -3613 -36274 Z"></path><path fill="#400" stroke="#931" stroke-width="75" d="M -10301 -39917 L -14013 -44022 L -13635 -44611 L -9783 -40387 Z"></path><path fill="#400" stroke="#931" stroke-width="75" d="M 2662 -39892 L -4742 -45994 L -4327 -46557 L 3662 -39891 Z"></path><path fill="#400" stroke="#931" stroke-width="75" d="M -4742 -45994 L -10808 -50469 L -10334 -50985 L -4327 -46557 Z"></path><path fill="#400" stroke="#931" stroke-width="75" d="M -10808 -50469 L -14945 -54273 L -14479 -54795 L -10334 -50985 Z"></path><path fill="#400" stroke="#931" stroke-width="75" d="M -14945 -54273 L -18101 -57088 L -17619 -57596 L -14479 -54795 Z"></path><path stroke="#FF00FF" fill="#FF00FF" stroke-width="200" fill-opacity="0.6" d="M -17702 -57202 C -17231 -60972 -21728 -60278 -22751 -61024 C -21754 -60242 -21203 -55726 -17702 -57202"></path><path stroke="#0000FF" fill="#0000FF" stroke-width="200" fill-opacity="0.6" d="M -12430 -52252 C -10299 -54881 -14027 -56473 -14449 -57519 C -14064 -56459 -15773 -52783 -12430 -52252"></path><path stroke="#00FF00" fill="#00FF00" stroke-width="200" fill-opacity="0.6" d="M -7737 -48533 C -5389 -50545 -8477 -52589 -8684 -53598 C -8512 -52582 -10653 -49560 -7737 -48533"></path><path stroke="#808000" fill="#808000" stroke-width="200" fill-opacity="0.6" d="M -13635 -44108 C -13609 -47547 -17579 -46447 -18578 -47010 C -17599 -46413 -16625 -42410 -13635 -44108"></path><path stroke="#FF0000" fill="#FF0000" stroke-width="200" fill-opacity="0.6" d="M -12248 -42674 C -14223 -46022 -17431 -42649 -18726 -42614 C -17431 -42603 -14161 -39290 -12248 -42674"></path><path stroke="#C0C0C0" fill="#C0C0C0" stroke-width="200" fill-opacity="0.6" d="M -7948 -38714 C -5539 -40905 -8855 -42960 -9104 -44017 C -8892 -42952 -11051 -39704 -7948 -38714"></path><path stroke="#FFA500" fill="#FFA500" stroke-width="200" fill-opacity="0.6" d="M -16037 -29487 C -17547 -33231 -21364 -30262 -22700 -30427 C -21371 -30216 -18524 -26307 -16037 -29487"></path><path stroke="#FF00FF" fill="#FF00FF" stroke-width="200" fill-opacity="0.6" d="M -219 -33407 C -2310 -37153 -5938 -33515 -7368 -33511 C -5938 -33465 -2418 -29724 -219 -33407"></path><path stroke="#FFA500" fill="#FFA500" stroke-width="200" fill-opacity="0.6" d="M -7849 -26483 C -6296 -30356 -11268 -30873 -12146 -31952 C -11306 -30843 -11980 -25891 -7849 -26483"></path><path stroke="#00FFFF" fill="#00FFFF" stroke-width="200" fill-opacity="0.6" d="M -6572 -26131 C -8835 -28184 -10456 -24903 -11421 -24575 C -10445 -24869 -7218 -23145 -6572 -26131"></path><path stroke="#00FFFF" fill="#00FFFF" stroke-width="200" fill-opacity="0.6" d="M 103 -22593 C 938 -26793 -4173 -26376 -5262 -27298 C -4206 -26339 -3951 -21217 103 -22593"></path><path stroke="#00FFFF" fill="#00FFFF" stroke-width="200" fill-opacity="0.6" d="M 1236 -22133 C -1208 -24130 -2706 -20659 -3683 -20269 C -2693 -20624 729 -19018 1236 -22133"></path><path fill="#400" stroke="#931" stroke-width="75" d="M -10301 -39917 L -10099 -43035 L -9706 -43112 L -9783 -40387 Z"></path><path fill="#400" stroke="#931" stroke-width="75" d="M -10099 -43035 L -10522 -45240 L -10123 -45213 L -9706 -43112 Z"></path><path fill="#400" stroke="#931" stroke-width="75" d="M -10522 -45240 L -10409 -46838 L -10014 -46899 L -10123 -45213 Z"></path><path fill="#400" stroke="#931" stroke-width="75" d="M -4742 -45994 L -4643 -48941 L -4249 -49007 L -4327 -46557 Z"></path><path fill="#400" stroke="#931" stroke-width="75" d="M -4643 -48941 L -4980 -50992 L -4582 -50951 L -4249 -49007 Z"></path><path fill="#400" stroke="#931" stroke-width="75" d="M -4980 -50992 L -4826 -52477 L -4426 -52487 L -4582 -50951 Z"></path><path stroke="#FFFF00" fill="#FFFF00" stroke-width="200" fill-opacity="0.6" d="M -4634 -52407 C -1196 -53920 -4067 -57383 -3953 -58630 C -4111 -57388 -7663 -54627 -4634 -52407"></path><path stroke="#00FFFF" fill="#00FFFF" stroke-width="200" fill-opacity="0.6" d="M -4578 -51987 C -544 -51553 -1368 -56342 -589 -57447 C -1406 -56369 -6219 -55698 -4578 -51987"></path><path stroke="#C0C0C0" fill="#C0C0C0" stroke-width="200" fill-opacity="0.6" d="M -4705 -51756 C -2923 -54772 -6981 -55834 -7572 -56841 C -7016 -55814 -8207 -51792 -4705 -51756"></path><path stroke="#00FFFF" fill="#00FFFF" stroke-width="200" fill-opacity="0.6" d="M -4672 -50198 C -716 -49406 -1102 -54223 -232 -55248 C -1137 -54254 -5964 -54020 -4672 -50198"></path><path stroke="#C0C0C0" fill="#C0C0C0" stroke-width="200" fill-opacity="0.6" d="M -4561 -49863 C -1987 -52474 -5839 -54582 -6184 -55755 C -5880 -54571 -8109 -50788 -4561 -49863"></path><path stroke="#808000" fill="#808000" stroke-width="200" fill-opacity="0.6" d="M -4478 -47775 C -1131 -48741 -3343 -52279 -3083 -53411 C -3382 -52289 -6988 -50191 -4478 -47775"></path><path stroke="#800080" fill="#800080" stroke-width="200" fill-opacity="0.6" d="M -4517 -47304 C -3595 -50235 -7274 -50334 -7980 -51077 C -7301 -50310 -7516 -46636 -4517 -47304"></path><path stroke="#808000" fill="#808000" stroke-width="200" fill-opacity="0.6" d="M -10308 -45922 C -8456 -49918 -13667 -50739 -14533 -51925 C -13709 -50710 -14694 -45527 -10308 -45922"></path><path stroke="#FFFF00" fill="#FFFF00" stroke-width="200" fill-opacity="0.6" d="M -10156 -44217 C -6639 -43502 -6970 -47787 -6193 -48697 C -7001 -47815 -11295 -47620 -10156 -44217"></path><path stroke="#0000FF" fill="#0000FF" stroke-width="200" fill-opacity="0.6" d="M -9991 -43964 C -7897 -47077 -12170 -48467 -12740 -49580 C -12210 -48447 -13734 -44221 -9991 -43964"></path><path stroke="#FFFF00" fill="#FFFF00" stroke-width="200" fill-opacity="0.6" d="M -9967 -42106 C -9026 -46326 -14197 -46025 -15275 -46981 C -14231 -45988 -14093 -40810 -9967 -42106"></path><path fill="#400" stroke="#931" stroke-width="75" d="M -10099 -43035 L -10822 -43498 L -10799 -43595 L -9706 -43112 Z"></path><path fill="#400" stroke="#931" stroke-width="75" d="M -10522 -45240 L -9673 -45616 L -9607 -45541 L -10123 -45213 Z"></path><path fill="#400" stroke="#931" stroke-width="75" d="M -4643 -48941 L -5547 -50149 L -5487 -50230 L -4249 -49007 Z"></path><path fill="#400" stroke="#931" stroke-width="75" d="M -4980 -50992 L -5248 -52081 L -5165 -52138 L -4582 -50951 Z"></path><path stroke="#C0C0C0" fill="#C0C0C0" stroke-width="200" fill-opacity="0.6" d="M -5042 -51705 C -5777 -56139 -10643 -53837 -12055 -54339 C -10662 -53788 -8515 -48851 -5042 -51705"></path><path stroke="#FFFF00" fill="#FFFF00" stroke-width="200" fill-opacity="0.6" d="M -5463 -50129 C -4956 -53862 -9423 -53221 -10429 -53972 C -9450 -53186 -8950 -48702 -5463 -50129"></path><path stroke="#C0C0C0" fill="#C0C0C0" stroke-width="200" fill-opacity="0.6" d="M -4885 -49458 C -2784 -52298 -6744 -53786 -7232 -54857 C -6782 -53769 -8394 -49858 -4885 -49458"></path><path stroke="#808000" fill="#808000" stroke-width="200" fill-opacity="0.6" d="M -10032 -45338 C -7561 -43315 -6042 -46824 -5053 -47217 C -6055 -46859 -9514 -48489 -10032 -45338"></path><path stroke="#FF00FF" fill="#FF00FF" stroke-width="200" fill-opacity="0.6" d="M -10765 -43523 C -12159 -47778 -16603 -44776 -18068 -45058 C -16613 -44725 -13754 -40189 -10765 -43523"></path><path stroke="#0000FF" fill="#0000FF" stroke-width="200" fill-opacity="0.6" d="M -10345 -43348 C -12373 -45585 -14284 -42515 -15263 -42286 C -14276 -42481 -11268 -40474 -10345 -43348"></path></svg></svg>