<svg class="svg-plant" viewBox="0 0 1 1" preserveAspectRatio="xMidYMax meet" xmlns="http://www.w3.org/2000/svg" xmlns:xlink="http://www.w3.org/1999/xlink"><svg class="svg-plant-pot" viewBox="0 0 100 100" preserveAspectRatio="xMidYMax meet" xmlns="http://www.w3.org/2000/svg" xmlns:xlink="http://www.w3.org/1999/xlink" x="0" y="0.6699999999999999" width="1" height="0.33"><path fill="#fc7" stroke="#da5" stroke-width="2" d="M 1 1 L 99 1 L 97 20 L 95 20 L 84 99 L 16 99 L 5 20 L 3 20 Z"></path></svg><svg class="svg-plant-body" viewBox="-42312 -149414 84624 149414" preserveAspectRatio="xMidYMax meet" xmlns="http://www.w3.org/2000/svg" xmlns:xlink="http://www.w3.org/1999/xlink" x="0" y="0" width="1" height="0.6699999999999999"><path fill="#400" stroke="#931" stroke-width="75" d="M 4310 0 L 5316 -9957 L 6316 -9941 L 5310 0 Z"></path><path fill="#400" stroke="#931" stroke-width="75" d="M 5316 -9957 L 5475 -20000 L 6470 -19896 L 6316 -9941 Z"></path><path fill="#400" stroke="#931" stroke-width="75" d="M 5475 -20000 L 6507 -29943 L 7502 -29846 L 6470 -19896 Z"></path><path fill="#400" stroke="#931" stroke-width="75" d="M 6507 -29943 L 7477 -39922 L 8466 -39774 L 7502 -29846 Z"></path><path fill="#400" stroke="#931" stroke-width="75" d="M 7477 -39922 L 8957 -49797 L 9950 -49678 L 8466 -39774 Z"></path><path fill="#400" stroke="#931" stroke-width="75" d="M 8957 -49797 L 10147 -59738 L 11137 -59595 L 9950 -49678 Z"></path><path fill="#400" stroke="#931" stroke-width="75" d="M 10147 -59738 L 11568 -69617 L 12563 -69512 L 11137 -59595 Z"></path><path fill="#400" stroke="#931" stroke-width="75" d="M 11568 -69617 L 12625 -79566 L 13619 -79452 L 12563 -69512 Z"></path><path fill="#400" stroke="#931" stroke-width="75" d="M 12625 -79566 L 13759 -89451 L 14759 -89437 L 13619 -79452 Z"></path><path fill="#400" stroke="#931" stroke-width="75" d="M 13759 -89451 L 13907 -99514 L 14896 -99371 L 14759 -89437 Z"></path><path fill="#400" stroke="#931" stroke-width="75" d="M 13907 -99514 L 15336 -109378 L 16333 -109302 L 14896 -99371 Z"></path><path fill="#400" stroke="#931" stroke-width="75" d="M 15336 -109378 L 16106 -119416 L 17083 -119206 L 16333 -109302 Z"></path><path fill="#400" stroke="#931" stroke-width="75" d="M 16106 -119416 L 18195 -129128 L 19192 -129048 L 17083 -119206 Z"></path><path fill="#400" stroke="#931" stroke-width="75" d="M 18195 -129128 L 18993 -139120 L 19985 -138993 L 19192 -129048 Z"></path><path fill="#400" stroke="#931" stroke-width="75" d="M 18993 -139120 L 20259 -148979 L 21259 -148972 L 19985 -138993 Z"></path><path stroke="#0000FF" fill="#0000FF" stroke-width="200" fill-opacity="0.6" d="M 19401 -135880 C 22895 -134870 22912 -139225 23771 -140080 C 22883 -139255 18530 -139411 19401 -135880"></path><path stroke="#800080" fill="#800080" stroke-width="200" fill-opacity="0.6" d="M 18988 -133685 C 20736 -136165 17306 -137365 16865 -138275 C 17274 -137350 15966 -133959 18988 -133685"></path><path stroke="#800080" fill="#800080" stroke-width="200" fill-opacity="0.6" d="M 17720 -124391 C 22058 -124024 21057 -129142 21865 -130347 C 21016 -129171 15869 -128332 17720 -124391"></path><path stroke="#800080" fill="#800080" stroke-width="200" fill-opacity="0.6" d="M 16567 -115761 C 19742 -114479 20177 -118558 21063 -119276 C 20152 -118589 16090 -119152 16567 -115761"></path><path stroke="#FF0000" fill="#FF0000" stroke-width="200" fill-opacity="0.6" d="M 16185 -114290 C 18506 -116206 15537 -118251 15353 -119238 C 15502 -118245 13364 -115342 16185 -114290"></path><path stroke="#00FFFF" fill="#00FFFF" stroke-width="200" fill-opacity="0.6" d="M 14805 -102642 C 17370 -106224 12403 -108003 11774 -109329 C 12357 -107981 10421 -103073 14805 -102642"></path><path stroke="#00FF00" fill="#00FF00" stroke-width="200" fill-opacity="0.6" d="M 14467 -96134 C 17633 -95523 17297 -99370 17987 -100194 C 17269 -99394 13413 -99181 14467 -96134"></path><path stroke="#00FF00" fill="#00FF00" stroke-width="200" fill-opacity="0.6" d="M 14008 -85514 C 17031 -85415 16153 -88930 16671 -89795 C 16123 -88948 12583 -88182 14008 -85514"></path><path stroke="#C0C0C0" fill="#C0C0C0" stroke-width="200" fill-opacity="0.6" d="M 12724 -74971 C 15861 -74189 15732 -78059 16467 -78847 C 15705 -78085 11833 -78079 12724 -74971"></path><path stroke="#800080" fill="#800080" stroke-width="200" fill-opacity="0.6" d="M 12285 -73209 C 14934 -75814 11063 -78009 10732 -79202 C 11022 -77998 8705 -74199 12285 -73209"></path><path stroke="#800080" fill="#800080" stroke-width="200" fill-opacity="0.6" d="M 11397 -65259 C 14373 -68560 9594 -70904 9112 -72305 C 9545 -70888 7050 -66186 11397 -65259"></path><path stroke="#FF00FF" fill="#FF00FF" stroke-width="200" fill-opacity="0.6" d="M 11230 -63054 C 15540 -62475 14793 -67630 15659 -68793 C 14753 -67661 9577 -67077 11230 -63054"></path><path stroke="#FF00FF" fill="#FF00FF" stroke-width="200" fill-opacity="0.6" d="M 10191 -55047 C 14488 -54376 13851 -59546 14741 -60690 C 13811 -59577 8624 -59104 10191 -55047"></path><path stroke="#FF0000" fill="#FF0000" stroke-width="200" fill-opacity="0.6" d="M 8825 -46018 C 11247 -49778 6120 -51333 5415 -52647 C 6074 -51310 4357 -46235 8825 -46018"></path><path stroke="#800080" fill="#800080" stroke-width="200" fill-opacity="0.6" d="M 8581 -43776 C 12352 -43476 11460 -47919 12157 -48970 C 11423 -47944 6955 -47192 8581 -43776"></path><path stroke="#FFFF00" fill="#FFFF00" stroke-width="200" fill-opacity="0.6" d="M 7257 -34615 C 9665 -36951 6184 -38959 5892 -40038 C 6146 -38949 4029 -35533 7257 -34615"></path><path stroke="#00FF00" fill="#00FF00" stroke-width="200" fill-opacity="0.6" d="M 6433 -23969 C 9602 -24183 8315 -27763 8764 -28721 C 8282 -27779 4663 -26606 6433 -23969"></path><path fill="#400" stroke="#931" stroke-width="75" d="M 5316 -9957 L 12032 -17786 L 12570 -17337 L 6316 -9941 Z"></path><path fill="#400" stroke="#931" stroke-width="75" d="M 12032 -17786 L 16862 -23578 L 17342 -23068 L 12570 -17337 Z"></path><path fill="#400" stroke="#931" stroke-width="75" d="M 16862 -23578 L 20953 -27437 L 21434 -26929 L 17342 -23068 Z"></path><path fill="#400" stroke="#931" stroke-width="75" d="M 5316 -9957 L -2112 -15903 L -1830 -16544 L 6316 -9941 Z"></path><path fill="#400" stroke="#931" stroke-width="75" d="M -2112 -15903 L -9022 -18951 L -8648 -19542 L -1830 -16544 Z"></path><path fill="#400" stroke="#931" stroke-width="75" d="M -9022 -18951 L -13735 -21935 L -13443 -22571 L -8648 -19542 Z"></path><path fill="#400" stroke="#931" stroke-width="75" d="M 5475 -20000 L 11429 -28312 L 12023 -27942 L 6470 -19896 Z"></path><path fill="#400" stroke="#931" stroke-width="75" d="M 11429 -28312 L 15403 -34686 L 15985 -34297 L 12023 -27942 Z"></path><path fill="#400" stroke="#931" stroke-width="75" d="M 15403 -34686 L 18526 -39363 L 19110 -38976 L 15985 -34297 Z"></path><path fill="#400" stroke="#931" stroke-width="75" d="M 5475 -20000 L 944 -28562 L 1528 -28948 L 6470 -19896 Z"></path><path fill="#400" stroke="#931" stroke-width="75" d="M 944 -28562 L -3230 -34904 L -2565 -35123 L 1528 -28948 Z"></path><path fill="#400" stroke="#931" stroke-width="75" d="M -3230 -34904 L -4950 -40178 L -4350 -40539 L -2565 -35123 Z"></path><path fill="#400" stroke="#931" stroke-width="75" d="M -4950 -40178 L -7161 -43875 L -6489 -44072 L -4350 -40539 Z"></path><path fill="#400" stroke="#931" stroke-width="75" d="M 7477 -39922 L 14241 -47646 L 14771 -47189 L 8466 -39774 Z"></path><path fill="#400" stroke="#931" stroke-width="75" d="M 14241 -47646 L 19171 -53371 L 19623 -52836 L 14771 -47189 Z"></path><path fill="#400" stroke="#931" stroke-width="75" d="M 19171 -53371 L 23459 -56999 L 23923 -56475 L 19623 -52836 Z"></path><path fill="#400" stroke="#931" stroke-width="75" d="M 23459 -56999 L 26628 -59808 L 27068 -59263 L 23923 -56475 Z"></path><path fill="#400" stroke="#931" stroke-width="75" d="M 8957 -49797 L 17979 -54882 L 18401 -54324 L 9950 -49678 Z"></path><path fill="#400" stroke="#931" stroke-width="75" d="M 17979 -54882 L 24027 -59447 L 24315 -58810 L 18401 -54324 Z"></path><path fill="#400" stroke="#931" stroke-width="75" d="M 24027 -59447 L 29077 -61721 L 29515 -61175 L 24315 -58810 Z"></path><path fill="#400" stroke="#931" stroke-width="75" d="M 29077 -61721 L 32402 -64382 L 32774 -63789 L 29515 -61175 Z"></path><path fill="#400" stroke="#931" stroke-width="75" d="M 11568 -69617 L 18966 -76794 L 19472 -76310 L 12563 -69512 Z"></path><path fill="#400" stroke="#931" stroke-width="75" d="M 18966 -76794 L 24176 -82233 L 24636 -81706 L 19472 -76310 Z"></path><path fill="#400" stroke="#931" stroke-width="75" d="M 24176 -82233 L 28371 -85888 L 28916 -85449 L 24636 -81706 Z"></path><path fill="#400" stroke="#931" stroke-width="75" d="M 28371 -85888 L 31087 -89236 L 31496 -88669 L 28916 -85449 Z"></path><path fill="#400" stroke="#931" stroke-width="75" d="M 11568 -69617 L 8311 -78764 L 8906 -79133 L 12563 -69512 Z"></path><path fill="#400" stroke="#931" stroke-width="75" d="M 8311 -78764 L 4320 -85215 L 4987 -85426 L 8906 -79133 Z"></path><path fill="#400" stroke="#931" stroke-width="75" d="M 4320 -85215 L 2631 -90545 L 3275 -90819 L 4987 -85426 Z"></path><path fill="#400" stroke="#931" stroke-width="75" d="M 2631 -90545 L 956 -94516 L 1649 -94614 L 3275 -90819 Z"></path><path fill="#400" stroke="#931" stroke-width="75" d="M 13907 -99514 L 7850 -106977 L 8366 -107451 L 14896 -99371 Z"></path><path fill="#400" stroke="#931" stroke-width="75" d="M 7850 -106977 L 2761 -112519 L 3308 -112956 L 8366 -107451 Z"></path><path fill="#400" stroke="#931" stroke-width="75" d="M 2761 -112519 L -725 -116892 L -222 -117378 L 3308 -112956 Z"></path><path fill="#400" stroke="#931" stroke-width="75" d="M 15336 -109378 L 22502 -116743 L 23061 -116322 L 16333 -109302 Z"></path><path fill="#400" stroke="#931" stroke-width="75" d="M 22502 -116743 L 27047 -122762 L 27552 -122277 L 23061 -116322 Z"></path><path fill="#400" stroke="#931" stroke-width="75" d="M 27047 -122762 L 30933 -126809 L 31457 -126345 L 27552 -122277 Z"></path><path fill="#400" stroke="#931" stroke-width="75" d="M 15336 -109378 L 11883 -118436 L 12448 -118849 L 16333 -109302 Z"></path><path fill="#400" stroke="#931" stroke-width="75" d="M 11883 -118436 L 7410 -124575 L 8067 -124817 L 12448 -118849 Z"></path><path fill="#400" stroke="#931" stroke-width="75" d="M 7410 -124575 L 5465 -129843 L 6115 -130102 L 8067 -124817 Z"></path><path fill="#400" stroke="#931" stroke-width="75" d="M 18195 -129128 L 27137 -134294 L 27623 -133790 L 19192 -129048 Z"></path><path fill="#400" stroke="#931" stroke-width="75" d="M 27137 -134294 L 32574 -139525 L 32992 -138964 L 27623 -133790 Z"></path><path fill="#400" stroke="#931" stroke-width="75" d="M 32574 -139525 L 37034 -142837 L 37555 -142370 L 32992 -138964 Z"></path><path fill="#400" stroke="#931" stroke-width="75" d="M 37034 -142837 L 39872 -146004 L 40345 -145488 L 37555 -142370 Z"></path><path stroke="#00FFFF" fill="#00FFFF" stroke-width="200" fill-opacity="0.6" d="M 38836 -144442 C 42043 -144735 40654 -148332 41087 -149314 C 40620 -148348 36980 -147073 38836 -144442"></path><path stroke="#FF0000" fill="#FF0000" stroke-width="200" fill-opacity="0.6" d="M 35188 -141005 C 37853 -137677 40811 -141839 42212 -142078 C 40804 -141888 36738 -144977 35188 -141005"></path><path stroke="#FF0000" fill="#FF0000" stroke-width="200" fill-opacity="0.6" d="M 30209 -136812 C 34652 -136951 33033 -142023 33710 -143341 C 32987 -142047 27867 -140590 30209 -136812"></path><path stroke="#FF00FF" fill="#FF00FF" stroke-width="200" fill-opacity="0.6" d="M 24158 -132299 C 27168 -132651 25775 -136003 26159 -136937 C 25743 -136017 22348 -134731 24158 -132299"></path><path stroke="#00FF00" fill="#00FF00" stroke-width="200" fill-opacity="0.6" d="M 31000 -126374 C 34170 -125683 33926 -129561 34640 -130374 C 33898 -129587 30014 -129465 31000 -126374"></path><path stroke="#808000" fill="#808000" stroke-width="200" fill-opacity="0.6" d="M 5887 -129709 C 7706 -132846 3495 -133911 2874 -134948 C 3458 -133890 2261 -129715 5887 -129709"></path><path stroke="#00FFFF" fill="#00FFFF" stroke-width="200" fill-opacity="0.6" d="M 29959 -125406 C 33279 -127097 30241 -130365 30285 -131606 C 30198 -130367 26835 -127435 29959 -125406"></path><path stroke="#FF0000" fill="#FF0000" stroke-width="200" fill-opacity="0.6" d="M 6471 -127756 C 9210 -129185 6664 -131872 6690 -132901 C 6628 -131873 3863 -129413 6471 -127756"></path><path stroke="#FFA500" fill="#FFA500" stroke-width="200" fill-opacity="0.6" d="M 29411 -124467 C 33100 -122165 34540 -127170 35808 -127874 C 34516 -127215 29559 -128813 29411 -124467"></path><path stroke="#FF00FF" fill="#FF00FF" stroke-width="200" fill-opacity="0.6" d="M 7082 -126956 C 7517 -129972 3900 -129483 3091 -130098 C 3878 -129456 4253 -125825 7082 -126956"></path><path stroke="#0000FF" fill="#0000FF" stroke-width="200" fill-opacity="0.6" d="M 24763 -119269 C 27857 -119798 26232 -123188 26578 -124175 C 26198 -123201 22758 -121684 24763 -119269"></path><path stroke="#FFA500" fill="#FFA500" stroke-width="200" fill-opacity="0.6" d="M 681 -115882 C -294 -119756 -4437 -117362 -5724 -117703 C -4449 -117317 -2187 -113100 681 -115882"></path><path stroke="#FFA500" fill="#FFA500" stroke-width="200" fill-opacity="0.6" d="M 19906 -113439 C 23368 -111221 24786 -115937 25992 -116588 C 24764 -115980 20095 -117546 19906 -113439"></path><path stroke="#800080" fill="#800080" stroke-width="200" fill-opacity="0.6" d="M 18587 -112442 C 21548 -113380 19495 -116482 19700 -117497 C 19460 -116490 16295 -114537 18587 -112442"></path><path stroke="#00FFFF" fill="#00FFFF" stroke-width="200" fill-opacity="0.6" d="M 4565 -110866 C 7145 -112465 4455 -114912 4406 -115922 C 4420 -114910 1890 -112300 4565 -110866"></path><path stroke="#0000FF" fill="#0000FF" stroke-width="200" fill-opacity="0.6" d="M 11036 -103504 C 14098 -105963 10260 -108682 10038 -109973 C 10215 -108676 7375 -104926 11036 -103504"></path><path stroke="#00FF00" fill="#00FF00" stroke-width="200" fill-opacity="0.6" d="M 30415 -87718 C 32899 -84510 35778 -88424 37115 -88630 C 35772 -88471 31951 -91473 30415 -87718"></path><path stroke="#FFFF00" fill="#FFFF00" stroke-width="200" fill-opacity="0.6" d="M 30112 -87690 C 34310 -88328 32196 -92955 32689 -94282 C 32150 -92973 27459 -91007 30112 -87690"></path><path stroke="#00FFFF" fill="#00FFFF" stroke-width="200" fill-opacity="0.6" d="M 3820 -88008 C 4136 -91966 -526 -91031 -1629 -91763 C -552 -90993 234 -86304 3820 -88008"></path><path stroke="#FF00FF" fill="#FF00FF" stroke-width="200" fill-opacity="0.6" d="M 26080 -83351 C 29050 -80664 31169 -84967 32433 -85399 C 31155 -85012 26922 -87267 26080 -83351"></path><path stroke="#00FF00" fill="#00FF00" stroke-width="200" fill-opacity="0.6" d="M 25675 -83122 C 29595 -84304 26946 -88431 27234 -89765 C 26899 -88442 22691 -85925 25675 -83122"></path><path stroke="#808000" fill="#808000" stroke-width="200" fill-opacity="0.6" d="M 22591 -80290 C 26722 -81484 23990 -85849 24309 -87246 C 23942 -85861 19492 -83269 22591 -80290"></path><path stroke="#FF00FF" fill="#FF00FF" stroke-width="200" fill-opacity="0.6" d="M 7269 -81337 C 7906 -85690 2684 -84994 1517 -85883 C 2652 -84954 3182 -79712 7269 -81337"></path><path stroke="#FF00FF" fill="#FF00FF" stroke-width="200" fill-opacity="0.6" d="M 9754 -75337 C 12840 -76798 10144 -79873 10216 -81009 C 10104 -79876 6945 -77278 9754 -75337"></path><path stroke="#C0C0C0" fill="#C0C0C0" stroke-width="200" fill-opacity="0.6" d="M 10233 -75016 C 9721 -78152 6277 -76533 5281 -76891 C 6264 -76499 7773 -73005 10233 -75016"></path><path stroke="#FF0000" fill="#FF0000" stroke-width="200" fill-opacity="0.6" d="M 14757 -72384 C 18740 -73421 16237 -77668 16578 -78997 C 16191 -77681 11867 -75314 14757 -72384"></path><path stroke="#00FF00" fill="#00FF00" stroke-width="200" fill-opacity="0.6" d="M 14879 -72095 C 17072 -69694 19118 -73009 20173 -73260 C 19110 -73046 15862 -75195 14879 -72095"></path><path stroke="#FFFF00" fill="#FFFF00" stroke-width="200" fill-opacity="0.6" d="M 30359 -62385 C 33831 -62447 32620 -66426 33164 -67448 C 32585 -66446 28569 -65362 30359 -62385"></path><path stroke="#FF0000" fill="#FF0000" stroke-width="200" fill-opacity="0.6" d="M 26476 -60252 C 30810 -61156 28346 -65851 28783 -67261 C 28297 -65867 23526 -63553 26476 -60252"></path><path stroke="#C0C0C0" fill="#C0C0C0" stroke-width="200" fill-opacity="0.6" d="M 26690 -59396 C 30088 -58082 30486 -62427 31418 -63205 C 30459 -62460 26129 -62995 26690 -59396"></path><path stroke="#FFA500" fill="#FFA500" stroke-width="200" fill-opacity="0.6" d="M 25310 -58338 C 28477 -58601 27135 -62163 27570 -63128 C 27102 -62178 23499 -60950 25310 -58338"></path><path stroke="#FFA500" fill="#FFA500" stroke-width="200" fill-opacity="0.6" d="M 25438 -58234 C 27727 -54389 31405 -58287 32896 -58333 C 31404 -58340 27624 -62140 25438 -58234"></path><path stroke="#800080" fill="#800080" stroke-width="200" fill-opacity="0.6" d="M 22143 -57728 C 25674 -57330 24974 -61529 25661 -62494 C 24941 -61553 20722 -60986 22143 -57728"></path><path stroke="#C0C0C0" fill="#C0C0C0" stroke-width="200" fill-opacity="0.6" d="M 20004 -55968 C 21343 -52500 24898 -55180 26125 -55010 C 24904 -55223 22338 -58861 20004 -55968"></path><path stroke="#C0C0C0" fill="#C0C0C0" stroke-width="200" fill-opacity="0.6" d="M 14952 -52963 C 18679 -53472 16869 -57599 17323 -58768 C 16829 -57615 12647 -55937 14952 -52963"></path><path stroke="#00FFFF" fill="#00FFFF" stroke-width="200" fill-opacity="0.6" d="M 13294 -51769 C 15806 -48787 18416 -52660 19692 -52910 C 18408 -52704 14621 -55436 13294 -51769"></path><path stroke="#800080" fill="#800080" stroke-width="200" fill-opacity="0.6" d="M 16379 -49396 C 19341 -46113 22150 -50602 23586 -50935 C 22139 -50653 17741 -53603 16379 -49396"></path><path stroke="#FF0000" fill="#FF0000" stroke-width="200" fill-opacity="0.6" d="M 10925 -43543 C 14471 -44611 12077 -48344 12338 -49550 C 12035 -48354 8228 -46079 10925 -43543"></path><path stroke="#0000FF" fill="#0000FF" stroke-width="200" fill-opacity="0.6" d="M 10338 -42358 C 13342 -39242 15944 -43725 17337 -44097 C 15932 -43774 11534 -46517 10338 -42358"></path><path stroke="#FF00FF" fill="#FF00FF" stroke-width="200" fill-opacity="0.6" d="M -6168 -42712 C -2497 -43432 -4531 -47424 -4148 -48611 C -4573 -47438 -8627 -45531 -6168 -42712"></path><path stroke="#FF0000" fill="#FF0000" stroke-width="200" fill-opacity="0.6" d="M 19731 -25945 C 23794 -27249 20958 -31501 21235 -32896 C 20910 -31511 16570 -28812 19731 -25945"></path><path stroke="#C0C0C0" fill="#C0C0C0" stroke-width="200" fill-opacity="0.6" d="M -1131 -32517 C -525 -36330 -5115 -35777 -6129 -36570 C -5144 -35742 -4736 -31136 -1131 -32517"></path><path stroke="#800080" fill="#800080" stroke-width="200" fill-opacity="0.6" d="M 2706 -25722 C 5833 -28168 1989 -30967 1782 -32274 C 1944 -30961 -976 -27207 2706 -25722"></path><path stroke="#FFA500" fill="#FFA500" stroke-width="200" fill-opacity="0.6" d="M 15066 -20737 C 17183 -18047 19587 -21369 20713 -21552 C 19581 -21408 16337 -23916 15066 -20737"></path><path stroke="#FF00FF" fill="#FF00FF" stroke-width="200" fill-opacity="0.6" d="M 14698 -20693 C 17712 -21009 16359 -24377 16754 -25306 C 16327 -24391 12918 -23145 14698 -20693"></path><path stroke="#FF00FF" fill="#FF00FF" stroke-width="200" fill-opacity="0.6" d="M 8028 -22816 C 11568 -21101 12381 -25742 13453 -26496 C 12355 -25779 7743 -26739 8028 -22816"></path><path stroke="#808000" fill="#808000" stroke-width="200" fill-opacity="0.6" d="M -11475 -20762 C -9267 -24426 -14212 -25767 -14924 -27003 C -14256 -25743 -15753 -20842 -11475 -20762"></path><path stroke="#800080" fill="#800080" stroke-width="200" fill-opacity="0.6" d="M 4647 -22719 C 5030 -27008 -37 -26041 -1226 -26846 C -66 -26000 740 -20905 4647 -22719"></path><path stroke="#800080" fill="#800080" stroke-width="200" fill-opacity="0.6" d="M -10526 -20387 C -12093 -23603 -15283 -20743 -16474 -20806 C -15286 -20701 -12528 -17422 -10526 -20387"></path><path stroke="#C0C0C0" fill="#C0C0C0" stroke-width="200" fill-opacity="0.6" d="M 8720 -13424 C 12637 -15119 9398 -19075 9537 -20491 C 9349 -19081 5293 -15968 8720 -13424"></path><path fill="#400" stroke="#931" stroke-width="75" d="M 11429 -28312 L 18041 -30243 L 18236 -29894 L 12023 -27942 Z"></path><path fill="#400" stroke="#931" stroke-width="75" d="M 18041 -30243 L 22470 -32715 L 22577 -32330 L 18236 -29894 Z"></path><path fill="#400" stroke="#931" stroke-width="75" d="M 22470 -32715 L 26072 -33711 L 26238 -33347 L 22577 -32330 Z"></path><path fill="#400" stroke="#931" stroke-width="75" d="M 11429 -28312 L 10073 -34617 L 10461 -34715 L 12023 -27942 Z"></path><path fill="#400" stroke="#931" stroke-width="75" d="M 10073 -34617 L 8827 -39527 L 9227 -39544 L 10461 -34715 Z"></path><path fill="#400" stroke="#931" stroke-width="75" d="M 944 -28562 L -5410 -29176 L -5461 -29573 L 1528 -28948 Z"></path><path fill="#400" stroke="#931" stroke-width="75" d="M -5410 -29176 L -10436 -28537 L -10403 -28936 L -5461 -29573 Z"></path><path fill="#400" stroke="#931" stroke-width="75" d="M -3230 -34904 L -7780 -36073 L -7745 -36471 L -2565 -35123 Z"></path><path fill="#400" stroke="#931" stroke-width="75" d="M -7780 -36073 L -11559 -36405 L -11474 -36796 L -7745 -36471 Z"></path><path fill="#400" stroke="#931" stroke-width="75" d="M -4950 -40178 L -4709 -44080 L -4320 -44170 L -4350 -40539 Z"></path><path fill="#400" stroke="#931" stroke-width="75" d="M -4709 -44080 L -5349 -46837 L -4957 -46919 L -4320 -44170 Z"></path><path fill="#400" stroke="#931" stroke-width="75" d="M -4950 -40178 L -8303 -41135 L -8278 -41534 L -4350 -40539 Z"></path><path fill="#400" stroke="#931" stroke-width="75" d="M -8303 -41135 L -11147 -41319 L -11076 -41713 L -8278 -41534 Z"></path><path fill="#400" stroke="#931" stroke-width="75" d="M -11147 -41319 L -13221 -41697 L -13173 -42094 L -11076 -41713 Z"></path><path fill="#400" stroke="#931" stroke-width="75" d="M 19171 -53371 L 23735 -52319 L 23688 -51922 L 19623 -52836 Z"></path><path fill="#400" stroke="#931" stroke-width="75" d="M 23735 -52319 L 27078 -51917 L 26936 -51543 L 23688 -51922 Z"></path><path fill="#400" stroke="#931" stroke-width="75" d="M 27078 -51917 L 29391 -51033 L 29273 -50651 L 26936 -51543 Z"></path><path fill="#400" stroke="#931" stroke-width="75" d="M 17979 -54882 L 17872 -60053 L 18260 -60150 L 18401 -54324 Z"></path><path fill="#400" stroke="#931" stroke-width="75" d="M 17872 -60053 L 16867 -64107 L 17267 -64101 L 18260 -60150 Z"></path><path fill="#400" stroke="#931" stroke-width="75" d="M 16867 -64107 L 16921 -67161 L 17314 -67234 L 17267 -64101 Z"></path><path fill="#400" stroke="#931" stroke-width="75" d="M 18966 -76794 L 23562 -78244 L 23771 -77903 L 19472 -76310 Z"></path><path fill="#400" stroke="#931" stroke-width="75" d="M 23562 -78244 L 26569 -80087 L 26774 -79743 L 23771 -77903 Z"></path><path fill="#400" stroke="#931" stroke-width="75" d="M 8311 -78764 L 8287 -83636 L 8687 -83658 L 8906 -79133 Z"></path><path fill="#400" stroke="#931" stroke-width="75" d="M 8287 -83636 L 8093 -87159 L 8493 -87173 L 8687 -83658 Z"></path><path fill="#400" stroke="#931" stroke-width="75" d="M 2631 -90545 L 658 -91941 L 818 -92308 L 3275 -90819 Z"></path><path fill="#400" stroke="#931" stroke-width="75" d="M 658 -91941 L -1171 -92740 L -988 -93096 L 818 -92308 Z"></path><path fill="#400" stroke="#931" stroke-width="75" d="M -1171 -92740 L -2444 -93404 L -2359 -93795 L -988 -93096 Z"></path><path fill="#400" stroke="#931" stroke-width="75" d="M 7850 -106977 L 7946 -110697 L 8345 -110730 L 8366 -107451 Z"></path><path fill="#400" stroke="#931" stroke-width="75" d="M 7946 -110697 L 7729 -113315 L 8128 -113345 L 8345 -110730 Z"></path><path fill="#400" stroke="#931" stroke-width="75" d="M 7729 -113315 L 7591 -115224 L 7966 -115362 L 8128 -113345 Z"></path><path fill="#400" stroke="#931" stroke-width="75" d="M 7850 -106977 L 4714 -106467 L 4591 -106848 L 8366 -107451 Z"></path><path fill="#400" stroke="#931" stroke-width="75" d="M 4714 -106467 L 2189 -105652 L 2121 -106046 L 4591 -106848 Z"></path><path fill="#400" stroke="#931" stroke-width="75" d="M 2189 -105652 L 280 -105324 L 150 -105702 L 2121 -106046 Z"></path><path fill="#400" stroke="#931" stroke-width="75" d="M 2761 -112519 L 3683 -115261 L 4075 -115185 L 3308 -112956 Z"></path><path fill="#400" stroke="#931" stroke-width="75" d="M 3683 -115261 L 4070 -117234 L 4438 -117078 L 4075 -115185 Z"></path><path fill="#400" stroke="#931" stroke-width="75" d="M 27047 -122762 L 26922 -124815 L 27319 -124860 L 27552 -122277 Z"></path><path fill="#400" stroke="#931" stroke-width="75" d="M 26922 -124815 L 26723 -126583 L 27122 -126557 L 27319 -124860 Z"></path><path fill="#400" stroke="#931" stroke-width="75" d="M 11883 -118436 L 12110 -121718 L 12508 -121760 L 12448 -118849 Z"></path><path fill="#400" stroke="#931" stroke-width="75" d="M 12110 -121718 L 11864 -124045 L 12264 -124058 L 12508 -121760 Z"></path><path fill="#400" stroke="#931" stroke-width="75" d="M 27137 -134294 L 27081 -136284 L 27465 -136395 L 27623 -133790 Z"></path><path fill="#400" stroke="#931" stroke-width="75" d="M 27081 -136284 L 26599 -137955 L 26990 -138039 L 27465 -136395 Z"></path><path stroke="#FFA500" fill="#FFA500" stroke-width="200" fill-opacity="0.6" d="M 26946 -137379 C 29906 -137939 28289 -141164 28604 -142118 C 28256 -141176 24981 -139662 26946 -137379"></path><path stroke="#FF00FF" fill="#FF00FF" stroke-width="200" fill-opacity="0.6" d="M 27228 -135611 C 30753 -136716 28322 -140413 28570 -141620 C 28281 -140423 24508 -138111 27228 -135611"></path><path stroke="#0000FF" fill="#0000FF" stroke-width="200" fill-opacity="0.6" d="M 27346 -135078 C 27938 -138190 24160 -137850 23349 -138526 C 24136 -137823 24355 -134035 27346 -135078"></path><path stroke="#00FFFF" fill="#00FFFF" stroke-width="200" fill-opacity="0.6" d="M 27097 -125811 C 29667 -128830 25346 -130800 24881 -132037 C 25302 -130784 23197 -126528 27097 -125811"></path><path stroke="#0000FF" fill="#0000FF" stroke-width="200" fill-opacity="0.6" d="M 27354 -123172 C 28950 -126028 25136 -126929 24562 -127856 C 25104 -126909 24083 -123126 27354 -123172"></path><path stroke="#00FF00" fill="#00FF00" stroke-width="200" fill-opacity="0.6" d="M 12077 -123936 C 14737 -125585 11964 -128108 11913 -129151 C 11927 -128107 9317 -125415 12077 -123936"></path><path stroke="#C0C0C0" fill="#C0C0C0" stroke-width="200" fill-opacity="0.6" d="M 12200 -123155 C 14404 -126562 9757 -127982 9120 -129175 C 9715 -127961 8148 -123361 12200 -123155"></path><path stroke="#FF0000" fill="#FF0000" stroke-width="200" fill-opacity="0.6" d="M 12156 -120110 C 13499 -123207 9491 -123738 8806 -124630 C 9460 -123715 8802 -119725 12156 -120110"></path><path stroke="#808000" fill="#808000" stroke-width="200" fill-opacity="0.6" d="M 4236 -117059 C 7736 -117864 5659 -121632 5990 -122782 C 5619 -121644 1788 -119688 4236 -117059"></path><path stroke="#800080" fill="#800080" stroke-width="200" fill-opacity="0.6" d="M 4124 -116492 C 7222 -118306 4116 -121278 4088 -122474 C 4074 -121278 1005 -118268 4124 -116492"></path><path stroke="#00FF00" fill="#00FF00" stroke-width="200" fill-opacity="0.6" d="M 7786 -115195 C 10413 -118303 5970 -120308 5488 -121576 C 5925 -120292 3781 -115915 7786 -115195"></path><path stroke="#FFA500" fill="#FFA500" stroke-width="200" fill-opacity="0.6" d="M 3551 -114215 C 7744 -113603 7073 -118633 7929 -119757 C 7034 -118664 1985 -118153 3551 -114215"></path><path stroke="#00FF00" fill="#00FF00" stroke-width="200" fill-opacity="0.6" d="M 3351 -113866 C 6062 -116709 1897 -118898 1506 -120148 C 1853 -118885 -467 -114792 3351 -113866"></path><path stroke="#808000" fill="#808000" stroke-width="200" fill-opacity="0.6" d="M 8161 -111711 C 9621 -114805 5578 -115471 4912 -116396 C 5545 -115448 4752 -111428 8161 -111711"></path><path stroke="#800080" fill="#800080" stroke-width="200" fill-opacity="0.6" d="M 8061 -111506 C 11807 -111330 10779 -115702 11436 -116765 C 10743 -115725 6341 -114837 8061 -111506"></path><path stroke="#C0C0C0" fill="#C0C0C0" stroke-width="200" fill-opacity="0.6" d="M 8145 -108883 C 11222 -109552 9441 -112876 9743 -113881 C 9406 -112887 6028 -111213 8145 -108883"></path><path stroke="#FF00FF" fill="#FF00FF" stroke-width="200" fill-opacity="0.6" d="M 312 -105530 C -2385 -107200 -3423 -103544 -4346 -103028 C -3406 -103512 215 -102359 312 -105530"></path><path stroke="#00FF00" fill="#00FF00" stroke-width="200" fill-opacity="0.6" d="M 786 -105689 C -3158 -105821 -2016 -101234 -2691 -100106 C -1977 -101210 2644 -102207 786 -105689"></path><path stroke="#00FF00" fill="#00FF00" stroke-width="200" fill-opacity="0.6" d="M 1076 -105576 C -262 -109439 -4273 -106630 -5616 -106864 C -4282 -106583 -1601 -102485 1076 -105576"></path><path stroke="#FF0000" fill="#FF0000" stroke-width="200" fill-opacity="0.6" d="M 3264 -106248 C -317 -107065 -82 -102672 -899 -101760 C -51 -102643 4347 -102739 3264 -106248"></path><path stroke="#0000FF" fill="#0000FF" stroke-width="200" fill-opacity="0.6" d="M 3557 -106271 C 3055 -110442 -1585 -108495 -2882 -109023 C -1604 -108450 195 -103751 3557 -106271"></path><path stroke="#00FF00" fill="#00FF00" stroke-width="200" fill-opacity="0.6" d="M 6434 -106899 C 4811 -110350 1368 -107347 100 -107431 C 1365 -107303 4257 -103767 6434 -106899"></path><path stroke="#FFFF00" fill="#FFFF00" stroke-width="200" fill-opacity="0.6" d="M 6840 -107089 C 2894 -107234 4022 -102641 3342 -101515 C 4061 -102617 8687 -103599 6840 -107089"></path><path stroke="#FFFF00" fill="#FFFF00" stroke-width="200" fill-opacity="0.6" d="M -1545 -93185 C -3759 -95979 -6250 -92512 -7422 -92318 C -6244 -92471 -2858 -89871 -1545 -93185"></path><path stroke="#FFA500" fill="#FFA500" stroke-width="200" fill-opacity="0.6" d="M -1748 -93212 C -798 -97126 -5618 -96936 -6605 -97845 C -5650 -96902 -5613 -92078 -1748 -93212"></path><path stroke="#FF0000" fill="#FF0000" stroke-width="200" fill-opacity="0.6" d="M 18 -92520 C -1300 -95476 -4272 -92987 -5347 -93081 C -4276 -92950 -1883 -89900 18 -92520"></path><path stroke="#00FF00" fill="#00FF00" stroke-width="200" fill-opacity="0.6" d="M 1527 -91742 C -808 -95091 -3899 -91302 -5253 -91162 C -3895 -91254 -206 -88045 1527 -91742"></path><path stroke="#808000" fill="#808000" stroke-width="200" fill-opacity="0.6" d="M 1980 -91227 C 3120 -94751 -1313 -94907 -2156 -95809 C -1345 -94878 -1642 -90452 1980 -91227"></path><path stroke="#FFA500" fill="#FFA500" stroke-width="200" fill-opacity="0.6" d="M 8303 -86990 C 10923 -88715 8076 -91167 7997 -92210 C 8040 -91165 5499 -88397 8303 -86990"></path><path stroke="#800080" fill="#800080" stroke-width="200" fill-opacity="0.6" d="M 8460 -85818 C 10081 -89148 5712 -89921 5003 -90932 C 5677 -89897 4766 -85556 8460 -85818"></path><path stroke="#800080" fill="#800080" stroke-width="200" fill-opacity="0.6" d="M 26521 -79823 C 30286 -77749 31439 -82767 32652 -83529 C 31413 -82809 26435 -84121 26521 -79823"></path><path stroke="#800080" fill="#800080" stroke-width="200" fill-opacity="0.6" d="M 24623 -78612 C 27283 -75432 30072 -79540 31429 -79802 C 30064 -79588 26046 -82505 24623 -78612"></path><path stroke="#C0C0C0" fill="#C0C0C0" stroke-width="200" fill-opacity="0.6" d="M 21553 -77432 C 24940 -77090 24222 -81104 24869 -82036 C 24190 -81127 20156 -80536 21553 -77432"></path><path stroke="#808000" fill="#808000" stroke-width="200" fill-opacity="0.6" d="M 21329 -77246 C 23011 -74304 25847 -77207 26977 -77222 C 25848 -77246 23036 -80173 21329 -77246"></path><path stroke="#C0C0C0" fill="#C0C0C0" stroke-width="200" fill-opacity="0.6" d="M 17115 -67043 C 20044 -69638 16092 -72160 15809 -73433 C 16048 -72151 13403 -68281 17115 -67043"></path><path stroke="#800080" fill="#800080" stroke-width="200" fill-opacity="0.6" d="M 17175 -66029 C 21587 -66076 20085 -71142 20784 -72436 C 20040 -71168 14928 -69827 17175 -66029"></path><path stroke="#FF00FF" fill="#FF00FF" stroke-width="200" fill-opacity="0.6" d="M 17031 -65220 C 18484 -68305 14454 -68966 13790 -69888 C 14422 -68943 13633 -64937 17031 -65220"></path><path stroke="#00FFFF" fill="#00FFFF" stroke-width="200" fill-opacity="0.6" d="M 18180 -57960 C 19011 -61034 15198 -60982 14437 -61721 C 15172 -60956 15103 -57143 18180 -57960"></path><path stroke="#0000FF" fill="#0000FF" stroke-width="200" fill-opacity="0.6" d="M 18111 -56775 C 22249 -57691 19836 -62156 20237 -63511 C 19789 -62171 15249 -59900 18111 -56775"></path><path stroke="#FF0000" fill="#FF0000" stroke-width="200" fill-opacity="0.6" d="M 29216 -50886 C 30696 -47040 34641 -50008 36001 -49817 C 34648 -50055 31807 -54092 29216 -50886"></path><path stroke="#FFA500" fill="#FFA500" stroke-width="200" fill-opacity="0.6" d="M 28507 -51076 C 27714 -47578 32003 -47812 32895 -47016 C 32031 -47843 31933 -52138 28507 -51076"></path><path stroke="#0000FF" fill="#0000FF" stroke-width="200" fill-opacity="0.6" d="M 22309 -52416 C 21459 -49176 25470 -49260 26278 -48489 C 25498 -49288 25540 -53300 22309 -52416"></path><path stroke="#800080" fill="#800080" stroke-width="200" fill-opacity="0.6" d="M -4764 -45566 C -3279 -48400 -7030 -49180 -7616 -50071 C -7062 -49160 -7960 -45435 -4764 -45566"></path><path stroke="#00FF00" fill="#00FF00" stroke-width="200" fill-opacity="0.6" d="M -4492 -42977 C -837 -43183 -2274 -47325 -1744 -48424 C -2312 -47344 -6498 -46039 -4492 -42977"></path><path stroke="#C0C0C0" fill="#C0C0C0" stroke-width="200" fill-opacity="0.6" d="M -9550 -41475 C -12853 -44116 -14810 -39444 -16114 -38908 C -14792 -39399 -10185 -37294 -9550 -41475"></path><path stroke="#FFFF00" fill="#FFFF00" stroke-width="200" fill-opacity="0.6" d="M -9681 -41370 C -8261 -45465 -13445 -45756 -14410 -46831 C -13483 -45723 -13937 -40551 -9681 -41370"></path><path stroke="#FF00FF" fill="#FF00FF" stroke-width="200" fill-opacity="0.6" d="M -6029 -40841 C -8599 -42974 -10212 -39313 -11250 -38909 C -10199 -39277 -6591 -37548 -6029 -40841"></path><path stroke="#00FFFF" fill="#00FFFF" stroke-width="200" fill-opacity="0.6" d="M 9089 -39292 C 12022 -40768 9359 -43662 9403 -44756 C 9321 -43664 6344 -41094 9089 -39292"></path><path stroke="#00FF00" fill="#00FF00" stroke-width="200" fill-opacity="0.6" d="M 9431 -37597 C 12853 -37711 11599 -41615 12118 -42631 C 11563 -41634 7621 -40503 9431 -37597"></path><path stroke="#800080" fill="#800080" stroke-width="200" fill-opacity="0.6" d="M -11329 -36584 C -11920 -40626 -16382 -38618 -17656 -39099 C -16400 -38574 -14534 -34051 -11329 -36584"></path><path stroke="#00FFFF" fill="#00FFFF" stroke-width="200" fill-opacity="0.6" d="M -9690 -36404 C -9301 -39555 -13058 -38968 -13914 -39590 C -13080 -38938 -12613 -35165 -9690 -36404"></path><path stroke="#C0C0C0" fill="#C0C0C0" stroke-width="200" fill-opacity="0.6" d="M -9556 -36474 C -12418 -39196 -14613 -35006 -15869 -34611 C -14600 -34962 -10482 -32635 -9556 -36474"></path><path stroke="#00FF00" fill="#00FF00" stroke-width="200" fill-opacity="0.6" d="M 20606 -31403 C 22078 -27343 26271 -30371 27693 -30144 C 26280 -30421 23386 -34708 20606 -31403"></path><path stroke="#FF0000" fill="#FF0000" stroke-width="200" fill-opacity="0.6" d="M -5431 -35606 C -4903 -38880 -8847 -38412 -9717 -39095 C -8872 -38383 -8530 -34425 -5431 -35606"></path><path stroke="#FFA500" fill="#FFA500" stroke-width="200" fill-opacity="0.6" d="M 11140 -30933 C 11704 -34481 7432 -33966 6489 -34703 C 7406 -33933 7786 -29647 11140 -30933"></path><path stroke="#808000" fill="#808000" stroke-width="200" fill-opacity="0.6" d="M -1682 -29120 C -4917 -30646 -5612 -26418 -6580 -25721 C -5588 -26384 -1385 -25556 -1682 -29120"></path><path fill="#400" stroke="#931" stroke-width="75" d="M 18041 -30243 L 18708 -33703 L 18808 -33699 L 18236 -29894 Z"></path><path fill="#400" stroke="#931" stroke-width="75" d="M 18708 -33703 L 18836 -36466 L 18935 -36457 L 18808 -33699 Z"></path><path fill="#400" stroke="#931" stroke-width="75" d="M -5410 -29176 L -8908 -31398 L -8859 -31486 L -5461 -29573 Z"></path><path fill="#400" stroke="#931" stroke-width="75" d="M -7780 -36073 L -9628 -35009 L -9696 -35082 L -7745 -36471 Z"></path><path fill="#400" stroke="#931" stroke-width="75" d="M -9628 -35009 L -10882 -33858 L -10941 -33939 L -9696 -35082 Z"></path><path fill="#400" stroke="#931" stroke-width="75" d="M 17872 -60053 L 15723 -62421 L 15789 -62495 L 18260 -60150 Z"></path><path fill="#400" stroke="#931" stroke-width="75" d="M 15723 -62421 L 13871 -64067 L 13941 -64138 L 15789 -62495 Z"></path><path fill="#400" stroke="#931" stroke-width="75" d="M 16867 -64107 L 18280 -66260 L 18368 -66212 L 17267 -64101 Z"></path><path fill="#400" stroke="#931" stroke-width="75" d="M 16867 -64107 L 15453 -65970 L 15519 -66046 L 17267 -64101 Z"></path><path fill="#400" stroke="#931" stroke-width="75" d="M 8287 -83636 L 9806 -86134 L 9898 -86094 L 8687 -83658 Z"></path><path fill="#400" stroke="#931" stroke-width="75" d="M 8287 -83636 L 6076 -85104 L 6123 -85192 L 8687 -83658 Z"></path><path fill="#400" stroke="#931" stroke-width="75" d="M -1171 -92740 L -1660 -92862 L -1688 -92958 L -988 -93096 Z"></path><path fill="#400" stroke="#931" stroke-width="75" d="M 7946 -110697 L 6542 -111756 L 6575 -111851 L 8345 -110730 Z"></path><path fill="#400" stroke="#931" stroke-width="75" d="M 26922 -124815 L 26446 -125294 L 26505 -125374 L 27319 -124860 Z"></path><path stroke="#FFA500" fill="#FFA500" stroke-width="200" fill-opacity="0.6" d="M 26508 -125309 C 26338 -128754 22425 -127427 21393 -127934 C 22407 -127392 23609 -123439 26508 -125309"></path><path stroke="#FFFF00" fill="#FFFF00" stroke-width="200" fill-opacity="0.6" d="M 26835 -125074 C 25135 -129227 20909 -125906 19424 -126081 C 20902 -125854 24088 -121525 26835 -125074"></path><path stroke="#FF0000" fill="#FF0000" stroke-width="200" fill-opacity="0.6" d="M 7243 -111318 C 8235 -115694 2869 -115399 1753 -116395 C 2834 -115360 2958 -109988 7243 -111318"></path><path stroke="#800080" fill="#800080" stroke-width="200" fill-opacity="0.6" d="M -1299 -92961 C -4560 -93885 -4554 -89825 -5351 -89024 C -4527 -89797 -469 -89674 -1299 -92961"></path><path stroke="#0000FF" fill="#0000FF" stroke-width="200" fill-opacity="0.6" d="M 6219 -85073 C 5859 -88261 2305 -86800 1317 -87210 C 2290 -86766 3638 -83167 6219 -85073"></path><path stroke="#00FFFF" fill="#00FFFF" stroke-width="200" fill-opacity="0.6" d="M 9098 -84719 C 13343 -83320 13562 -88668 14655 -89679 C 13527 -88707 8188 -89095 9098 -84719"></path><path stroke="#FFFF00" fill="#FFFF00" stroke-width="200" fill-opacity="0.6" d="M 7482 -84268 C 9459 -87020 5640 -88395 5158 -89416 C 5604 -88379 4110 -84605 7482 -84268"></path><path stroke="#808000" fill="#808000" stroke-width="200" fill-opacity="0.6" d="M 15565 -65913 C 16865 -70106 11608 -70227 10596 -71284 C 11571 -70192 11284 -64942 15565 -65913"></path><path stroke="#FF00FF" fill="#FF00FF" stroke-width="200" fill-opacity="0.6" d="M 17845 -65331 C 21306 -63496 22283 -68084 23377 -68797 C 22259 -68123 17704 -69245 17845 -65331"></path><path stroke="#00FFFF" fill="#00FFFF" stroke-width="200" fill-opacity="0.6" d="M 16365 -64994 C 15612 -68481 11842 -66469 10704 -66813 C 11829 -66430 13721 -62598 16365 -64994"></path><path stroke="#00FFFF" fill="#00FFFF" stroke-width="200" fill-opacity="0.6" d="M 13999 -64021 C 14644 -68110 9721 -67511 8633 -68360 C 9691 -67474 10134 -62535 13999 -64021"></path><path stroke="#808000" fill="#808000" stroke-width="200" fill-opacity="0.6" d="M 16679 -61560 C 15753 -64559 12602 -62508 11578 -62723 C 12594 -62473 14544 -59259 16679 -61560"></path><path stroke="#FF00FF" fill="#FF00FF" stroke-width="200" fill-opacity="0.6" d="M 16865 -61315 C 18574 -63842 15103 -64981 14643 -65888 C 15071 -64966 13822 -61533 16865 -61315"></path><path stroke="#FF0000" fill="#FF0000" stroke-width="200" fill-opacity="0.6" d="M 18879 -36324 C 22283 -37924 19322 -41319 19405 -42570 C 19278 -41323 15791 -38471 18879 -36324"></path><path stroke="#808000" fill="#808000" stroke-width="200" fill-opacity="0.6" d="M 18386 -31616 C 20605 -34934 16054 -36401 15445 -37584 C 16012 -36380 14403 -31878 18386 -31616"></path><path stroke="#FF0000" fill="#FF0000" stroke-width="200" fill-opacity="0.6" d="M -10849 -33956 C -13609 -35138 -14065 -31571 -14856 -30957 C -14044 -31543 -10493 -30974 -10849 -33956"></path><path stroke="#00FF00" fill="#00FF00" stroke-width="200" fill-opacity="0.6" d="M -10469 -34275 C -12758 -36619 -14706 -33214 -15759 -32925 C -14696 -33177 -11355 -31122 -10469 -34275"></path><path stroke="#FF00FF" fill="#FF00FF" stroke-width="200" fill-opacity="0.6" d="M -7699 -30736 C -9761 -33831 -12649 -30440 -13885 -30339 C -12646 -30397 -9349 -27403 -7699 -30736"></path></svg></svg>