<svg class="svg-plant" viewBox="0 0 1 1" preserveAspectRatio="xMidYMax meet" xmlns="http://www.w3.org/2000/svg" xmlns:xlink="http://www.w3.org/1999/xlink"><svg class="svg-plant-pot" viewBox="0 0 100 100" preserveAspectRatio="xMidYMax meet" xmlns="http://www.w3.org/2000/svg" xmlns:xlink="http://www.w3.org/1999/xlink" x="0" y="0.6699999999999999" width="1" height="0.33"><path fill="#fc7" stroke="#da5" stroke-width="2" d="M 1 1 L 99 1 L 97 20 L 95 20 L 84 99 L 16 99 L 5 20 L 3 20 Z"></path></svg><svg class="svg-plant-body" viewBox="-31730 -95135 63460 95135" preserveAspectRatio="xMidYMax meet" xmlns="http://www.w3.org/2000/svg" xmlns:xlink="http://www.w3.org/1999/xlink" x="0" y="0" width="1" height="0.6699999999999999"><path fill="#400" stroke="#931" stroke-width="75" d="M -2302 0 L -2678 -10017 L -1680 -9969 L -1302 0 Z"></path><path fill="#400" stroke="#931" stroke-width="75" d="M -2678 -10017 L -2191 -20001 L -1192 -19961 L -1680 -9969 Z"></path><path fill="#400" stroke="#931" stroke-width="75" d="M -2191 -20001 L -1779 -30038 L -788 -29907 L -1192 -19961 Z"></path><path fill="#400" stroke="#931" stroke-width="75" d="M -1779 -30038 L -476 -39885 L 524 -39888 L -788 -29907 Z"></path><path fill="#400" stroke="#931" stroke-width="75" d="M -476 -39885 L -508 -49901 L 492 -49873 L 524 -39888 Z"></path><path fill="#400" stroke="#931" stroke-width="75" d="M -508 -49901 L -233 -59889 L 767 -59877 L 492 -49873 Z"></path><path fill="#400" stroke="#931" stroke-width="75" d="M -233 -59889 L -112 -69916 L 885 -69849 L 767 -59877 Z"></path><path fill="#400" stroke="#931" stroke-width="75" d="M -112 -69916 L 559 -79849 L 1558 -79871 L 885 -69849 Z"></path><path stroke="#C0C0C0" fill="#C0C0C0" stroke-width="200" fill-opacity="0.6" d="M 326 -66698 C 2605 -69846 -1769 -71438 -2318 -72611 C -1810 -71419 -3539 -67098 326 -66698"></path><path stroke="#FFFF00" fill="#FFFF00" stroke-width="200" fill-opacity="0.6" d="M 358 -65390 C 3683 -65058 2974 -68997 3608 -69913 C 2942 -69020 -1017 -68435 358 -65390"></path><path stroke="#0000FF" fill="#0000FF" stroke-width="200" fill-opacity="0.6" d="M 153 -54555 C 4087 -54918 2377 -59330 2907 -60536 C 2336 -59349 -2129 -57781 153 -54555"></path><path stroke="#C0C0C0" fill="#C0C0C0" stroke-width="200" fill-opacity="0.6" d="M -100 -44197 C 4257 -44471 2511 -49400 3135 -50715 C 2465 -49423 -2516 -47833 -100 -44197"></path><path stroke="#00FFFF" fill="#00FFFF" stroke-width="200" fill-opacity="0.6" d="M -738 -35856 C 1079 -38454 -2510 -39693 -2974 -40643 C -2544 -39678 -3896 -36130 -738 -35856"></path><path stroke="#00FF00" fill="#00FF00" stroke-width="200" fill-opacity="0.6" d="M -1318 -23542 C 2198 -22584 2147 -26949 2994 -27819 C 2117 -26979 -2247 -27066 -1318 -23542"></path><path stroke="#FFA500" fill="#FFA500" stroke-width="200" fill-opacity="0.6" d="M -1796 -23004 C -126 -25632 -3700 -26693 -4197 -27605 C -3733 -26676 -4907 -23137 -1796 -23004"></path><path stroke="#808000" fill="#808000" stroke-width="200" fill-opacity="0.6" d="M -2055 -16009 C 277 -19171 -4131 -20820 -4676 -22011 C -4173 -20801 -5960 -16448 -2055 -16009"></path><path stroke="#00FFFF" fill="#00FFFF" stroke-width="200" fill-opacity="0.6" d="M -1758 -14526 C 2031 -14390 944 -18799 1597 -19882 C 907 -18822 -3534 -17876 -1758 -14526"></path><path fill="#400" stroke="#931" stroke-width="75" d="M -2678 -10017 L -9284 -17026 L -8786 -17519 L -1680 -9969 Z"></path><path fill="#400" stroke="#931" stroke-width="75" d="M -9284 -17026 L -14585 -22381 L -14041 -22821 L -8786 -17519 Z"></path><path fill="#400" stroke="#931" stroke-width="75" d="M -14585 -22381 L -18098 -26728 L -17602 -27222 L -14041 -22821 Z"></path><path fill="#400" stroke="#931" stroke-width="75" d="M -18098 -26728 L -21095 -29732 L -20566 -30189 L -17602 -27222 Z"></path><path fill="#400" stroke="#931" stroke-width="75" d="M -1779 -30038 L 5176 -37543 L 5760 -37157 L -788 -29907 Z"></path><path fill="#400" stroke="#931" stroke-width="75" d="M 5176 -37543 L 9310 -43810 L 9885 -43411 L 5760 -37157 Z"></path><path fill="#400" stroke="#931" stroke-width="75" d="M 9310 -43810 L 12505 -48410 L 13106 -48052 L 9885 -43411 Z"></path><path fill="#400" stroke="#931" stroke-width="75" d="M -508 -49901 L 5863 -57871 L 6510 -57604 L 492 -49873 Z"></path><path fill="#400" stroke="#931" stroke-width="75" d="M 5863 -57871 L 8775 -64884 L 9326 -64453 L 6510 -57604 Z"></path><path fill="#400" stroke="#931" stroke-width="75" d="M 8775 -64884 L 12230 -69303 L 12801 -68897 L 9326 -64453 Z"></path><path fill="#400" stroke="#931" stroke-width="75" d="M -233 -59889 L -7156 -66501 L -6769 -67084 L 767 -59877 Z"></path><path fill="#400" stroke="#931" stroke-width="75" d="M -7156 -66501 L -13450 -70688 L -12969 -71197 L -6769 -67084 Z"></path><path fill="#400" stroke="#931" stroke-width="75" d="M -13450 -70688 L -17533 -74543 L -17066 -75065 L -12969 -71197 Z"></path><path fill="#400" stroke="#931" stroke-width="75" d="M -112 -69916 L 5819 -78198 L 6463 -77923 L 885 -69849 Z"></path><path fill="#400" stroke="#931" stroke-width="75" d="M 5819 -78198 L 8795 -85156 L 9373 -84762 L 6463 -77923 Z"></path><path fill="#400" stroke="#931" stroke-width="75" d="M 8795 -85156 L 11951 -89789 L 12550 -89427 L 9373 -84762 Z"></path><path stroke="#FFA500" fill="#FFA500" stroke-width="200" fill-opacity="0.6" d="M 12092 -89376 C 16029 -89347 14770 -93892 15414 -95035 C 14730 -93915 10148 -92800 12092 -89376"></path><path stroke="#808000" fill="#808000" stroke-width="200" fill-opacity="0.6" d="M 10482 -87283 C 13836 -89473 10212 -92617 10116 -93948 C 10166 -92614 6909 -89092 10482 -87283"></path><path stroke="#FFA500" fill="#FFA500" stroke-width="200" fill-opacity="0.6" d="M 8153 -82727 C 11500 -80029 13509 -84771 14836 -85311 C 13491 -84817 8815 -86975 8153 -82727"></path><path stroke="#00FF00" fill="#00FF00" stroke-width="200" fill-opacity="0.6" d="M 7363 -80963 C 10329 -82860 7170 -85654 7097 -86826 C 7129 -85653 4237 -82584 7363 -80963"></path><path stroke="#808000" fill="#808000" stroke-width="200" fill-opacity="0.6" d="M -14973 -72789 C -16342 -75588 -19117 -73093 -20154 -73146 C -19119 -73056 -16713 -70204 -14973 -72789"></path><path stroke="#0000FF" fill="#0000FF" stroke-width="200" fill-opacity="0.6" d="M -14889 -72417 C -12501 -74722 -15939 -76716 -16225 -77785 C -15977 -76707 -18079 -73334 -14889 -72417"></path><path stroke="#FF00FF" fill="#FF00FF" stroke-width="200" fill-opacity="0.6" d="M 2664 -73376 C 5292 -75093 2451 -77557 2376 -78600 C 2415 -77555 -138 -74793 2664 -73376"></path><path stroke="#800080" fill="#800080" stroke-width="200" fill-opacity="0.6" d="M -10772 -69313 C -8524 -71628 -11928 -73457 -12240 -74487 C -11964 -73447 -13901 -70102 -10772 -69313"></path><path stroke="#00FF00" fill="#00FF00" stroke-width="200" fill-opacity="0.6" d="M 12342 -68878 C 15367 -68888 14363 -72369 14849 -73252 C 14333 -72386 10822 -71493 12342 -68878"></path><path stroke="#FF0000" fill="#FF0000" stroke-width="200" fill-opacity="0.6" d="M 10154 -66100 C 14070 -67267 11441 -71395 11734 -72725 C 11395 -71406 7186 -68909 10154 -66100"></path><path stroke="#FF0000" fill="#FF0000" stroke-width="200" fill-opacity="0.6" d="M -2595 -62771 C -4169 -65486 -6781 -62782 -7827 -62763 C -6781 -62746 -4161 -60050 -2595 -62771"></path><path stroke="#C0C0C0" fill="#C0C0C0" stroke-width="200" fill-opacity="0.6" d="M 7294 -60511 C 11158 -62017 8155 -65973 8340 -67343 C 8107 -65980 4058 -63104 7294 -60511"></path><path stroke="#FFA500" fill="#FFA500" stroke-width="200" fill-opacity="0.6" d="M 3174 -54151 C 5627 -56476 2144 -58537 1863 -59627 C 2106 -58528 -65 -55112 3174 -54151"></path><path stroke="#FFA500" fill="#FFA500" stroke-width="200" fill-opacity="0.6" d="M 11195 -46120 C 14778 -48725 10601 -51996 10420 -53462 C 10549 -51991 7148 -47919 11195 -46120"></path><path stroke="#FFFF00" fill="#FFFF00" stroke-width="200" fill-opacity="0.6" d="M 10682 -45045 C 14192 -43057 15329 -47753 16476 -48455 C 15305 -47793 10648 -49078 10682 -45045"></path><path stroke="#808000" fill="#808000" stroke-width="200" fill-opacity="0.6" d="M 7243 -40238 C 10096 -41449 7765 -44339 7873 -45366 C 7729 -44343 4767 -42104 7243 -40238"></path><path stroke="#C0C0C0" fill="#C0C0C0" stroke-width="200" fill-opacity="0.6" d="M -20682 -29811 C -19730 -33190 -23934 -33177 -24766 -34000 C -23964 -33148 -24083 -28946 -20682 -29811"></path><path stroke="#FF0000" fill="#FF0000" stroke-width="200" fill-opacity="0.6" d="M -19984 -28995 C -17383 -31093 -20654 -33400 -20845 -34497 C -20692 -33394 -23101 -30198 -19984 -28995"></path><path stroke="#FF0000" fill="#FF0000" stroke-width="200" fill-opacity="0.6" d="M 3081 -34904 C 5853 -36216 3432 -38978 3497 -39998 C 3396 -38981 559 -36649 3081 -34904"></path><path stroke="#FFA500" fill="#FFA500" stroke-width="200" fill-opacity="0.6" d="M -19071 -28371 C -19292 -32008 -23408 -30560 -24504 -31083 C -23427 -30522 -22110 -26362 -19071 -28371"></path><path stroke="#FFFF00" fill="#FFFF00" stroke-width="200" fill-opacity="0.6" d="M -16190 -24691 C -12886 -27599 -17320 -30450 -17633 -31883 C -17370 -30440 -20360 -26098 -16190 -24691"></path><path stroke="#FF00FF" fill="#FF00FF" stroke-width="200" fill-opacity="0.6" d="M -11461 -19489 C -8477 -22438 -12853 -24907 -13230 -26254 C -12900 -24895 -15507 -20599 -11461 -19489"></path><path stroke="#FFA500" fill="#FFA500" stroke-width="200" fill-opacity="0.6" d="M -5798 -14084 C -7539 -17894 -11356 -14639 -12748 -14748 C -11361 -14591 -8228 -10672 -5798 -14084"></path><path fill="#400" stroke="#931" stroke-width="75" d="M -9284 -17026 L -15737 -17508 L -15806 -17902 L -8786 -17519 Z"></path><path fill="#400" stroke="#931" stroke-width="75" d="M -15737 -17508 L -20733 -16639 L -20785 -17036 L -15806 -17902 Z"></path><path fill="#400" stroke="#931" stroke-width="75" d="M -20733 -16639 L -24468 -16152 L -24579 -16536 L -20785 -17036 Z"></path><path fill="#400" stroke="#931" stroke-width="75" d="M -14585 -22381 L -19024 -24374 L -18931 -24763 L -14041 -22821 Z"></path><path fill="#400" stroke="#931" stroke-width="75" d="M -19024 -24374 L -22752 -25272 L -22587 -25637 L -18931 -24763 Z"></path><path fill="#400" stroke="#931" stroke-width="75" d="M -22752 -25272 L -25342 -26438 L -25191 -26808 L -22587 -25637 Z"></path><path fill="#400" stroke="#931" stroke-width="75" d="M -18098 -26728 L -18652 -30648 L -18280 -30795 L -17602 -27222 Z"></path><path fill="#400" stroke="#931" stroke-width="75" d="M -18652 -30648 L -19704 -33321 L -19317 -33420 L -18280 -30795 Z"></path><path fill="#400" stroke="#931" stroke-width="75" d="M -18098 -26728 L -21605 -26852 L -21687 -27243 L -17602 -27222 Z"></path><path fill="#400" stroke="#931" stroke-width="75" d="M -21605 -26852 L -24441 -26262 L -24426 -26662 L -21687 -27243 Z"></path><path fill="#400" stroke="#931" stroke-width="75" d="M -24441 -26262 L -26541 -26343 L -26594 -26739 L -24426 -26662 Z"></path><path fill="#400" stroke="#931" stroke-width="75" d="M 5176 -37543 L 10654 -37926 L 10754 -37539 L 5760 -37157 Z"></path><path fill="#400" stroke="#931" stroke-width="75" d="M 10654 -37926 L 14486 -38921 L 14543 -38525 L 10754 -37539 Z"></path><path fill="#400" stroke="#931" stroke-width="75" d="M 14486 -38921 L 17360 -39331 L 17514 -38962 L 14543 -38525 Z"></path><path fill="#400" stroke="#931" stroke-width="75" d="M 5176 -37543 L 5177 -42571 L 5573 -42627 L 5760 -37157 Z"></path><path fill="#400" stroke="#931" stroke-width="75" d="M 5177 -42571 L 4624 -46494 L 5023 -46501 L 5573 -42627 Z"></path><path fill="#400" stroke="#931" stroke-width="75" d="M -7156 -66501 L -7504 -69718 L -7119 -69827 L -6769 -67084 Z"></path><path fill="#400" stroke="#931" stroke-width="75" d="M -7504 -69718 L -8123 -71897 L -7731 -71976 L -7119 -69827 Z"></path><path fill="#400" stroke="#931" stroke-width="75" d="M -8123 -71897 L -8446 -73511 L -8079 -73670 L -7731 -71976 Z"></path><path fill="#400" stroke="#931" stroke-width="75" d="M -7156 -66501 L -9851 -66107 L -9990 -66482 L -6769 -67084 Z"></path><path fill="#400" stroke="#931" stroke-width="75" d="M -9851 -66107 L -11973 -65316 L -12084 -65700 L -9990 -66482 Z"></path><path fill="#400" stroke="#931" stroke-width="75" d="M -11973 -65316 L -13589 -64850 L -13711 -65230 L -12084 -65700 Z"></path><path fill="#400" stroke="#931" stroke-width="75" d="M -13450 -70688 L -13929 -73077 L -13543 -73184 L -12969 -71197 Z"></path><path fill="#400" stroke="#931" stroke-width="75" d="M -13929 -73077 L -14385 -74725 L -13990 -74788 L -13543 -73184 Z"></path><path fill="#400" stroke="#931" stroke-width="75" d="M -14385 -74725 L -14572 -75926 L -14205 -76085 L -13990 -74788 Z"></path><path fill="#400" stroke="#931" stroke-width="75" d="M 8795 -85156 L 10742 -85220 L 10799 -84824 L 9373 -84762 Z"></path><path fill="#400" stroke="#931" stroke-width="75" d="M 10742 -85220 L 12032 -85400 L 12015 -85001 L 10799 -84824 Z"></path><path fill="#400" stroke="#931" stroke-width="75" d="M 12032 -85400 L 12972 -85361 L 12972 -84961 L 12015 -85001 Z"></path><path fill="#400" stroke="#931" stroke-width="75" d="M 8795 -85156 L 8533 -86514 L 8889 -86696 L 9373 -84762 Z"></path><path fill="#400" stroke="#931" stroke-width="75" d="M 8533 -86514 L 7952 -87647 L 8315 -87815 L 8889 -86696 Z"></path><path stroke="#00FFFF" fill="#00FFFF" stroke-width="200" fill-opacity="0.6" d="M 8162 -87675 C 10463 -90724 6196 -92373 5678 -93537 C 6155 -92356 4371 -88143 8162 -87675"></path><path stroke="#800080" fill="#800080" stroke-width="200" fill-opacity="0.6" d="M 8325 -87378 C 8000 -91634 3204 -89863 1911 -90456 C 3183 -89818 4802 -84969 8325 -87378"></path><path stroke="#FFA500" fill="#FFA500" stroke-width="200" fill-opacity="0.6" d="M 8391 -87064 C 11758 -88132 9423 -91660 9656 -92814 C 9383 -91668 5783 -89446 8391 -87064"></path><path stroke="#00FFFF" fill="#00FFFF" stroke-width="200" fill-opacity="0.6" d="M 12648 -85094 C 13063 -81555 17003 -83196 18102 -82745 C 17020 -83234 15505 -87224 12648 -85094"></path><path stroke="#C0C0C0" fill="#C0C0C0" stroke-width="200" fill-opacity="0.6" d="M 12425 -85188 C 16160 -83135 17300 -88112 18502 -88869 C 17274 -88154 12335 -89450 12425 -85188"></path><path stroke="#808000" fill="#808000" stroke-width="200" fill-opacity="0.6" d="M 9053 -85556 C 9387 -89315 4948 -88466 3906 -89170 C 4923 -88430 5631 -83966 9053 -85556"></path><path stroke="#FF0000" fill="#FF0000" stroke-width="200" fill-opacity="0.6" d="M 11614 -85110 C 11984 -81486 16036 -83102 17153 -82625 C 16054 -83141 14566 -87242 11614 -85110"></path><path stroke="#C0C0C0" fill="#C0C0C0" stroke-width="200" fill-opacity="0.6" d="M 10059 -85095 C 13915 -82879 15202 -88048 16472 -88814 C 15176 -88092 10051 -89543 10059 -85095"></path><path stroke="#FFA500" fill="#FFA500" stroke-width="200" fill-opacity="0.6" d="M -14378 -75943 C -12252 -78248 -15604 -79941 -15932 -80933 C -15639 -79930 -17437 -76633 -14378 -75943"></path><path stroke="#808000" fill="#808000" stroke-width="200" fill-opacity="0.6" d="M -14261 -75275 C -14413 -78648 -18248 -77366 -19256 -77866 C -18266 -77331 -17106 -73457 -14261 -75275"></path><path stroke="#0000FF" fill="#0000FF" stroke-width="200" fill-opacity="0.6" d="M -14014 -73863 C -9991 -74462 -12002 -78900 -11526 -80169 C -12046 -78917 -16545 -77048 -14014 -73863"></path><path stroke="#FFA500" fill="#FFA500" stroke-width="200" fill-opacity="0.6" d="M -8246 -73508 C -6285 -75955 -9748 -77410 -10145 -78377 C -9782 -77396 -11346 -73982 -8246 -73508"></path><path stroke="#FFFF00" fill="#FFFF00" stroke-width="200" fill-opacity="0.6" d="M -8181 -72803 C -5408 -74196 -7922 -76932 -7880 -77966 C -7958 -76934 -10773 -74509 -8181 -72803"></path><path stroke="#00FFFF" fill="#00FFFF" stroke-width="200" fill-opacity="0.6" d="M -13436 -71766 C -9297 -72838 -11890 -77253 -11533 -78633 C -11938 -77266 -16433 -74815 -13436 -71766"></path><path stroke="#C0C0C0" fill="#C0C0C0" stroke-width="200" fill-opacity="0.6" d="M -7539 -70677 C -6206 -74349 -10873 -74680 -11728 -75662 C -10907 -74650 -11386 -69996 -7539 -70677"></path><path stroke="#FF00FF" fill="#FF00FF" stroke-width="200" fill-opacity="0.6" d="M -7957 -66562 C -8830 -69640 -12088 -67624 -13126 -67867 C -12097 -67588 -10186 -64268 -7957 -66562"></path><path stroke="#C0C0C0" fill="#C0C0C0" stroke-width="200" fill-opacity="0.6" d="M -12853 -65216 C -13836 -68693 -17518 -66419 -18690 -66695 C -17528 -66379 -15372 -62626 -12853 -65216"></path><path stroke="#808000" fill="#808000" stroke-width="200" fill-opacity="0.6" d="M 4851 -46303 C 7778 -48834 3902 -51375 3637 -52637 C 3858 -51366 1196 -47572 4851 -46303"></path><path stroke="#800080" fill="#800080" stroke-width="200" fill-opacity="0.6" d="M 17291 -39125 C 19698 -36901 21470 -40403 22508 -40745 C 21459 -40439 18014 -42322 17291 -39125"></path><path stroke="#800080" fill="#800080" stroke-width="200" fill-opacity="0.6" d="M 16010 -39036 C 20330 -37931 20185 -43269 21205 -44350 C 20147 -43306 14807 -43329 16010 -39036"></path><path stroke="#00FF00" fill="#00FF00" stroke-width="200" fill-opacity="0.6" d="M 15479 -38763 C 16299 -35481 19811 -37503 20900 -37211 C 19822 -37541 17912 -41115 15479 -38763"></path><path stroke="#C0C0C0" fill="#C0C0C0" stroke-width="200" fill-opacity="0.6" d="M 5424 -40625 C 6378 -44657 1421 -44432 399 -45362 C 1388 -44397 1455 -39435 5424 -40625"></path><path stroke="#C0C0C0" fill="#C0C0C0" stroke-width="200" fill-opacity="0.6" d="M 8287 -37619 C 11343 -37014 11037 -40732 11707 -41525 C 11010 -40756 7283 -40568 8287 -37619"></path><path stroke="#00FF00" fill="#00FF00" stroke-width="200" fill-opacity="0.6" d="M -19458 -33238 C -17118 -35873 -20921 -37704 -21311 -38812 C -20960 -37691 -22910 -33948 -19458 -33238"></path><path stroke="#C0C0C0" fill="#C0C0C0" stroke-width="200" fill-opacity="0.6" d="M 8336 -37543 C 9979 -33567 14019 -36765 15443 -36601 C 14025 -36814 10957 -40953 8336 -37543"></path><path stroke="#808000" fill="#808000" stroke-width="200" fill-opacity="0.6" d="M -26461 -26537 C -28200 -29114 -30598 -26265 -31630 -26174 C -30595 -26229 -27823 -23742 -26461 -26537"></path><path stroke="#C0C0C0" fill="#C0C0C0" stroke-width="200" fill-opacity="0.6" d="M -19018 -32024 C -15356 -32598 -17220 -36627 -16796 -37788 C -17260 -36643 -21347 -34908 -19018 -32024"></path><path stroke="#00FFFF" fill="#00FFFF" stroke-width="200" fill-opacity="0.6" d="M -25379 -26536 C -28728 -28018 -29335 -23674 -30308 -22937 C -29310 -23640 -24988 -22895 -25379 -26536"></path><path stroke="#C0C0C0" fill="#C0C0C0" stroke-width="200" fill-opacity="0.6" d="M -25137 -26564 C -25307 -29633 -28786 -28429 -29708 -28876 C -28802 -28398 -27709 -24882 -25137 -26564"></path><path stroke="#00FFFF" fill="#00FFFF" stroke-width="200" fill-opacity="0.6" d="M -24091 -26185 C -26485 -28531 -28401 -25003 -29472 -24684 C -28391 -24966 -24926 -22938 -24091 -26185"></path><path stroke="#FF00FF" fill="#FF00FF" stroke-width="200" fill-opacity="0.6" d="M -24047 -25973 C -22489 -29876 -27496 -30389 -28382 -31473 C -27534 -30358 -28206 -25370 -24047 -25973"></path><path stroke="#800080" fill="#800080" stroke-width="200" fill-opacity="0.6" d="M -18160 -28713 C -14196 -30075 -17065 -34194 -16821 -35570 C -17113 -34203 -21321 -31466 -18160 -28713"></path><path stroke="#FFA500" fill="#FFA500" stroke-width="200" fill-opacity="0.6" d="M -21423 -25235 C -23685 -27508 -25559 -24156 -26587 -23864 C -25550 -24120 -22260 -22141 -21423 -25235"></path><path stroke="#00FF00" fill="#00FF00" stroke-width="200" fill-opacity="0.6" d="M -19887 -27016 C -23210 -28738 -24103 -24345 -25142 -23655 C -24079 -24309 -19717 -23278 -19887 -27016"></path><path stroke="#FFFF00" fill="#FFFF00" stroke-width="200" fill-opacity="0.6" d="M -22637 -16605 C -26367 -17920 -26657 -13192 -27643 -12317 C -26627 -13157 -21911 -12717 -22637 -16605"></path><path stroke="#C0C0C0" fill="#C0C0C0" stroke-width="200" fill-opacity="0.6" d="M -22465 -16550 C -23023 -19787 -26568 -18081 -27603 -18442 C -26582 -18045 -24989 -14448 -22465 -16550"></path><path stroke="#FFA500" fill="#FFA500" stroke-width="200" fill-opacity="0.6" d="M -18431 -17334 C -21268 -18972 -22225 -15167 -23161 -14605 C -22205 -15134 -18432 -14058 -18431 -17334"></path><path stroke="#FF0000" fill="#FF0000" stroke-width="200" fill-opacity="0.6" d="M -18019 -17229 C -18632 -20610 -22325 -18794 -23410 -19161 C -22338 -18756 -20640 -15007 -18019 -17229"></path><path stroke="#FF0000" fill="#FF0000" stroke-width="200" fill-opacity="0.6" d="M -12606 -17605 C -16612 -18606 -16450 -13663 -17390 -12657 C -16416 -13630 -11470 -13635 -12606 -17605"></path><path fill="#400" stroke="#931" stroke-width="75" d="M -15737 -17508 L -18738 -20448 L -18684 -20533 L -15806 -17902 Z"></path><path fill="#400" stroke="#931" stroke-width="75" d="M -15737 -17508 L -17607 -14102 L -17701 -14137 L -15806 -17902 Z"></path><path fill="#400" stroke="#931" stroke-width="75" d="M -18652 -30648 L -19581 -30889 L -19587 -30989 L -18280 -30795 Z"></path><path fill="#400" stroke="#931" stroke-width="75" d="M -21605 -26852 L -22482 -26274 L -22548 -26348 L -21687 -27243 Z"></path><path fill="#400" stroke="#931" stroke-width="75" d="M -22482 -26274 L -23122 -25699 L -23179 -25781 L -22548 -26348 Z"></path><path fill="#400" stroke="#931" stroke-width="75" d="M 5177 -42571 L 3566 -44843 L 3638 -44912 L 5573 -42627 Z"></path><path fill="#400" stroke="#931" stroke-width="75" d="M -7504 -69718 L -8811 -70456 L -8772 -70548 L -7119 -69827 Z"></path><path fill="#400" stroke="#931" stroke-width="75" d="M -8123 -71897 L -8844 -72758 L -8786 -72839 L -7731 -71976 Z"></path><path fill="#400" stroke="#931" stroke-width="75" d="M -8844 -72758 L -9609 -73296 L -9540 -73369 L -8786 -72839 Z"></path><path fill="#400" stroke="#931" stroke-width="75" d="M -13929 -73077 L -14286 -73683 L -14224 -73762 L -13543 -73184 Z"></path><path fill="#400" stroke="#931" stroke-width="75" d="M -14385 -74725 L -14005 -75317 L -13910 -75283 L -13990 -74788 Z"></path><path fill="#400" stroke="#931" stroke-width="75" d="M -14005 -75317 L -13855 -75737 L -13763 -75698 L -13910 -75283 Z"></path><path fill="#400" stroke="#931" stroke-width="75" d="M 12032 -85400 L 12432 -85036 L 12393 -84943 L 12015 -85001 Z"></path><path fill="#400" stroke="#931" stroke-width="75" d="M 12032 -85400 L 12388 -85438 L 12451 -85360 L 12015 -85001 Z"></path><path fill="#400" stroke="#931" stroke-width="75" d="M 12388 -85438 L 12649 -85646 L 12709 -85566 L 12451 -85360 Z"></path><path stroke="#800080" fill="#800080" stroke-width="200" fill-opacity="0.6" d="M 12393 -85000 C 12475 -81095 16946 -82471 18097 -81864 C 16968 -82511 15734 -87023 12393 -85000"></path><path stroke="#0000FF" fill="#0000FF" stroke-width="200" fill-opacity="0.6" d="M -13858 -75592 C -10556 -77425 -13750 -80627 -13751 -81886 C -13794 -80628 -17096 -77536 -13858 -75592"></path><path stroke="#00FFFF" fill="#00FFFF" stroke-width="200" fill-opacity="0.6" d="M -13886 -75494 C -10308 -73576 -9274 -78327 -8136 -79060 C -9298 -78367 -14014 -79551 -13886 -75494"></path><path stroke="#808000" fill="#808000" stroke-width="200" fill-opacity="0.6" d="M -14120 -74958 C -11789 -77048 -14962 -79047 -15195 -80064 C -14998 -79039 -17096 -75931 -14120 -74958"></path><path stroke="#FF0000" fill="#FF0000" stroke-width="200" fill-opacity="0.6" d="M -14020 -75032 C -10251 -73935 -10224 -78636 -9295 -79558 C -10256 -78669 -14954 -78844 -14020 -75032"></path><path stroke="#0000FF" fill="#0000FF" stroke-width="200" fill-opacity="0.6" d="M -14074 -73485 C -11736 -76479 -15953 -78188 -16448 -79354 C -15994 -78172 -17836 -74012 -14074 -73485"></path><path stroke="#FF00FF" fill="#FF00FF" stroke-width="200" fill-opacity="0.6" d="M -9536 -73306 C -9256 -77602 -14296 -76514 -15503 -77290 C -14323 -76473 -13396 -71401 -9536 -73306"></path><path stroke="#00FFFF" fill="#00FFFF" stroke-width="200" fill-opacity="0.6" d="M -8717 -70466 C -9284 -74042 -13217 -72216 -14352 -72629 C -13232 -72177 -11532 -68187 -8717 -70466"></path><path stroke="#FFFF00" fill="#FFFF00" stroke-width="200" fill-opacity="0.6" d="M 3691 -44764 C 4904 -48965 -334 -48983 -1363 -50016 C -371 -48948 -554 -43714 3691 -44764"></path><path stroke="#C0C0C0" fill="#C0C0C0" stroke-width="200" fill-opacity="0.6" d="M 4468 -43760 C 6719 -46766 2518 -48372 2005 -49514 C 2477 -48355 739 -44207 4468 -43760"></path><path stroke="#0000FF" fill="#0000FF" stroke-width="200" fill-opacity="0.6" d="M -19528 -30928 C -21015 -33671 -23686 -31058 -24726 -31068 C -23687 -31022 -21160 -28270 -19528 -30928"></path><path stroke="#0000FF" fill="#0000FF" stroke-width="200" fill-opacity="0.6" d="M -23119 -25768 C -25916 -27103 -26535 -23444 -27376 -22844 C -26515 -23414 -22876 -22679 -23119 -25768"></path><path stroke="#FF0000" fill="#FF0000" stroke-width="200" fill-opacity="0.6" d="M -22918 -25950 C -26568 -26229 -25691 -21932 -26362 -20913 C -25656 -21908 -21334 -22649 -22918 -25950"></path><path stroke="#0000FF" fill="#0000FF" stroke-width="200" fill-opacity="0.6" d="M -22152 -26578 C -25124 -29888 -27961 -25377 -29406 -25046 C -27950 -25327 -23532 -22349 -22152 -26578"></path><path stroke="#FFFF00" fill="#FFFF00" stroke-width="200" fill-opacity="0.6" d="M -18564 -20351 C -17963 -23788 -22119 -23352 -23024 -24083 C -22145 -23321 -21841 -19154 -18564 -20351"></path><path stroke="#C0C0C0" fill="#C0C0C0" stroke-width="200" fill-opacity="0.6" d="M -16988 -15327 C -19732 -16736 -20455 -13113 -21309 -12541 C -20436 -13083 -16837 -12246 -16988 -15327"></path></svg></svg>