<svg class="svg-plant" viewBox="0 0 1 1" preserveAspectRatio="xMidYMax meet" xmlns="http://www.w3.org/2000/svg" xmlns:xlink="http://www.w3.org/1999/xlink"><svg class="svg-plant-pot" viewBox="0 0 100 100" preserveAspectRatio="xMidYMax meet" xmlns="http://www.w3.org/2000/svg" xmlns:xlink="http://www.w3.org/1999/xlink" x="0" y="0.6699999999999999" width="1" height="0.33"><path fill="#fc7" stroke="#da5" stroke-width="2" d="M 1 1 L 99 1 L 97 20 L 95 20 L 84 99 L 16 99 L 5 20 L 3 20 Z"></path></svg><svg class="svg-plant-body" viewBox="-30500 -66000 61000 66000" preserveAspectRatio="xMidYMax meet" xmlns="http://www.w3.org/2000/svg" xmlns:xlink="http://www.w3.org/1999/xlink" x="0" y="0" width="1" height="0.6699999999999999"><path fill="#400" stroke="#931" stroke-width="75" d="M -4242 0 L -5024 -9990 L -4025 -9949 L -3242 0 Z"></path><path fill="#400" stroke="#931" stroke-width="75" d="M -5024 -9990 L -4615 -19926 L -3617 -19996 L -4025 -9949 Z"></path><path fill="#400" stroke="#931" stroke-width="75" d="M -4615 -19926 L -5320 -29962 L -4321 -29910 L -3617 -19996 Z"></path><path fill="#400" stroke="#931" stroke-width="75" d="M -5320 -29962 L -4802 -39928 L -3802 -39918 L -4321 -29910 Z"></path><path fill="#400" stroke="#931" stroke-width="75" d="M -4802 -39928 L -4698 -49994 L -3709 -49851 L -3802 -39918 Z"></path><path fill="#400" stroke="#931" stroke-width="75" d="M -4698 -49994 L -3276 -59852 L -2278 -59788 L -3709 -49851 Z"></path><path stroke="#800080" fill="#800080" stroke-width="200" fill-opacity="0.6" d="M -2848 -59325 C 483 -60897 -2422 -64218 -2342 -65443 C -2465 -64221 -5875 -61423 -2848 -59325"></path><path stroke="#00FF00" fill="#00FF00" stroke-width="200" fill-opacity="0.6" d="M -3955 -53225 C -2517 -56276 -6503 -56932 -7160 -57845 C -6535 -56910 -7317 -52946 -3955 -53225"></path><path stroke="#FF00FF" fill="#FF00FF" stroke-width="200" fill-opacity="0.6" d="M -4353 -42990 C -2487 -46124 -6709 -47244 -7321 -48295 C -6746 -47223 -8000 -43039 -4353 -42990"></path><path stroke="#800080" fill="#800080" stroke-width="200" fill-opacity="0.6" d="M -4383 -35596 C -4 -36166 -2098 -41022 -1557 -42391 C -2146 -41042 -7065 -39103 -4383 -35596"></path><path stroke="#FFA500" fill="#FFA500" stroke-width="200" fill-opacity="0.6" d="M -4736 -34382 C -2908 -36934 -6448 -38202 -6896 -39147 C -6481 -38187 -7860 -34689 -4736 -34382"></path><path stroke="#FFFF00" fill="#FFFF00" stroke-width="200" fill-opacity="0.6" d="M -4275 -24915 C -3055 -27793 -6769 -28253 -7411 -29074 C -6798 -28232 -7377 -24533 -4275 -24915"></path><path stroke="#00FFFF" fill="#00FFFF" stroke-width="200" fill-opacity="0.6" d="M -4402 -23593 C -1298 -23322 -2005 -26985 -1425 -27847 C -2035 -27006 -5719 -26416 -4402 -23593"></path><path stroke="#00FF00" fill="#00FF00" stroke-width="200" fill-opacity="0.6" d="M -4306 -16674 C -2983 -19502 -6675 -20097 -7286 -20940 C -6705 -20076 -7416 -16405 -4306 -16674"></path><path stroke="#00FF00" fill="#00FF00" stroke-width="200" fill-opacity="0.6" d="M -4370 -13400 C -754 -13044 -1530 -17326 -842 -18323 C -1565 -17351 -5869 -16710 -4370 -13400"></path></svg></svg>