<svg class="svg-plant" viewBox="0 0 1 1" preserveAspectRatio="xMidYMax meet" xmlns="http://www.w3.org/2000/svg" xmlns:xlink="http://www.w3.org/1999/xlink"><svg class="svg-plant-pot" viewBox="0 0 100 100" preserveAspectRatio="xMidYMax meet" xmlns="http://www.w3.org/2000/svg" xmlns:xlink="http://www.w3.org/1999/xlink" x="0" y="0.6699999999999999" width="1" height="0.33"><path fill="#fc7" stroke="#da5" stroke-width="2" d="M 1 1 L 99 1 L 97 20 L 95 20 L 84 99 L 16 99 L 5 20 L 3 20 Z"></path></svg><svg class="svg-plant-body" viewBox="-51500 -86000 103000 88178" preserveAspectRatio="xMidYMax meet" xmlns="http://www.w3.org/2000/svg" xmlns:xlink="http://www.w3.org/1999/xlink" x="0" y="0" width="1" height="0.6869687618628472"><path fill="#400" stroke="#931" stroke-width="75" d="M -2908 0 L -3862 -7988 L 2121 -7591 L 1411 0 Z"></path><path fill="#400" stroke="#931" stroke-width="75" d="M -3862 -7988 L -2804 -17786 L 2413 -18115 L 2121 -7591 Z"></path><path fill="#400" stroke="#931" stroke-width="75" d="M -2804 -17786 L -2111 -23175 L 666 -23775 L 2413 -18115 Z"></path><path fill="#400" stroke="#931" stroke-width="75" d="M -2111 -23175 L -3000 -28028 L -515 -28493 L 666 -23775 Z"></path><path fill="#400" stroke="#931" stroke-width="75" d="M -2804 -17786 L -6681 -19805 L -5872 -21769 L 2413 -18115 Z"></path><path fill="#400" stroke="#931" stroke-width="75" d="M -6681 -19805 L -11809 -21971 L -11023 -23838 L -5872 -21769 Z"></path><path fill="#400" stroke="#931" stroke-width="75" d="M -2804 -17786 L 1269 -19915 L 2336 -18175 L 2413 -18115 Z"></path><path fill="#400" stroke="#931" stroke-width="75" d="M 1269 -19915 L 7107 -23667 L 8187 -21592 L 2336 -18175 Z"></path><path fill="#400" stroke="#931" stroke-width="75" d="M -2804 -17786 L -4677 -21989 L -2393 -23676 L 2413 -18115 Z"></path><path fill="#400" stroke="#931" stroke-width="75" d="M -4677 -21989 L -6230 -24684 L -4455 -25875 L -2393 -23676 Z"></path><path fill="#400" stroke="#931" stroke-width="75" d="M -2804 -17786 L -49 -21777 L 2412 -20992 L 2413 -18115 Z"></path><path fill="#400" stroke="#931" stroke-width="75" d="M -49 -21777 L 1489 -26876 L 4078 -25929 L 2412 -20992 Z"></path><path stroke="#00FF00" fill="#00FF00" stroke-width="200" fill-opacity="0.6" d="M -1741 -28013 C -5221 -35009 -27715 -45403 -34302 -49607 C -27866 -45176 -9540 -28497 -1741 -28013"></path><path stroke="#808000" fill="#808000" stroke-width="200" fill-opacity="0.6" d="M -1452 -27999 C 1627 -35401 -5453 -59818 -6626 -67748 C -5730 -59782 -6323 -34366 -1452 -27999"></path><path stroke="#FF0000" fill="#FF0000" stroke-width="200" fill-opacity="0.6" d="M -1534 -27935 C 6111 -29191 22524 -47473 28430 -52488 C 22353 -47683 1201 -35184 -1534 -27935"></path><path stroke="#808000" fill="#808000" stroke-width="200" fill-opacity="0.6" d="M -1865 -27910 C -3342 -35991 -23035 -53043 -28464 -59209 C -23254 -52857 -9602 -30671 -1865 -27910"></path><path stroke="#FF0000" fill="#FF0000" stroke-width="200" fill-opacity="0.6" d="M -1396 -27663 C -214 -35366 -12582 -56758 -15536 -63968 C -12835 -56659 -7475 -32537 -1396 -27663"></path><path stroke="#800080" fill="#800080" stroke-width="200" fill-opacity="0.6" d="M -1538 -27406 C -5534 -32032 -24596 -35541 -30403 -37448 C -24666 -35339 -7542 -26259 -1538 -27406"></path><path stroke="#808000" fill="#808000" stroke-width="200" fill-opacity="0.6" d="M 2809 -25954 C 9711 -21300 36018 -23492 44331 -23057 C 36038 -23782 10291 -29605 2809 -25954"></path><path stroke="#0000FF" fill="#0000FF" stroke-width="200" fill-opacity="0.6" d="M 2839 -25884 C 10378 -24869 31038 -37324 38024 -40337 C 30937 -37569 7488 -31906 2839 -25884"></path><path stroke="#FF00FF" fill="#FF00FF" stroke-width="200" fill-opacity="0.6" d="M 2744 -25879 C 10007 -28180 23399 -48286 28439 -53998 C 23202 -48465 4383 -33318 2744 -25879"></path><path stroke="#808000" fill="#808000" stroke-width="200" fill-opacity="0.6" d="M 2832 -25783 C 8436 -26443 20984 -39199 25448 -42651 C 20866 -39357 5063 -30966 2832 -25783"></path><path stroke="#800080" fill="#800080" stroke-width="200" fill-opacity="0.6" d="M 2350 -25529 C 105 -33453 -21176 -48591 -27182 -54227 C -21377 -48385 -5635 -27547 2350 -25529"></path><path stroke="#FFA500" fill="#FFA500" stroke-width="200" fill-opacity="0.6" d="M 2287 -25518 C 9666 -22736 33437 -30503 41195 -31918 C 33392 -30774 8386 -30517 2287 -25518"></path><path stroke="#FFFF00" fill="#FFFF00" stroke-width="200" fill-opacity="0.6" d="M 2792 -25598 C 2978 -32828 -10912 -51074 -14477 -57367 C -11134 -50954 -3376 -29374 2792 -25598"></path><path stroke="#00FF00" fill="#00FF00" stroke-width="200" fill-opacity="0.6" d="M 2716 -25432 C 5678 -31719 524 -53145 -175 -60060 C 282 -53125 -1248 -31141 2716 -25432"></path><path stroke="#FF0000" fill="#FF0000" stroke-width="200" fill-opacity="0.6" d="M 2357 -25456 C 7304 -30615 9299 -53193 10883 -60164 C 9057 -53253 363 -32320 2357 -25456"></path><path stroke="#808000" fill="#808000" stroke-width="200" fill-opacity="0.6" d="M -5209 -25184 C 1227 -26949 13641 -44090 18249 -48918 C 13475 -44254 -3520 -31641 -5209 -25184"></path><path stroke="#FFFF00" fill="#FFFF00" stroke-width="200" fill-opacity="0.6" d="M -5379 -24979 C -5321 -32634 -20371 -51681 -24264 -58272 C -20604 -51549 -11979 -28857 -5379 -24979"></path><path stroke="#800080" fill="#800080" stroke-width="200" fill-opacity="0.6" d="M -4799 -24922 C -8003 -29648 -25308 -34973 -30489 -37374 C -25395 -34794 -10493 -24510 -4799 -24922"></path><path stroke="#800080" fill="#800080" stroke-width="200" fill-opacity="0.6" d="M -5387 -25008 C -431 -28725 4447 -47755 6781 -53494 C 4248 -47840 -6129 -31159 -5387 -25008"></path><path stroke="#FF00FF" fill="#FF00FF" stroke-width="200" fill-opacity="0.6" d="M -4980 -25071 C -2025 -29837 -4179 -47488 -4101 -53095 C -4375 -47494 -7630 -30013 -4980 -25071"></path><path stroke="#00FF00" fill="#00FF00" stroke-width="200" fill-opacity="0.6" d="M -5023 -24789 C -3097 -32584 -13808 -55680 -16172 -63352 C -14077 -55602 -10810 -30354 -5023 -24789"></path><path stroke="#FF0000" fill="#FF0000" stroke-width="200" fill-opacity="0.6" d="M -5232 -24801 C 305 -30774 2140 -56535 3809 -64506 C 1863 -56598 -7636 -32583 -5232 -24801"></path><path stroke="#808000" fill="#808000" stroke-width="200" fill-opacity="0.6" d="M -11101 -22656 C -15749 -26811 -35492 -27858 -41616 -29025 C -35536 -27645 -17023 -20708 -11101 -22656"></path><path stroke="#C0C0C0" fill="#C0C0C0" stroke-width="200" fill-opacity="0.6" d="M -10780 -22742 C -8123 -30350 -16655 -54436 -18296 -62325 C -16931 -54384 -16040 -28847 -10780 -22742"></path><path stroke="#0000FF" fill="#0000FF" stroke-width="200" fill-opacity="0.6" d="M -10870 -22561 C -10775 -28669 -22665 -43962 -25729 -49246 C -22851 -43858 -16112 -25697 -10870 -22561"></path><path stroke="#FFA500" fill="#FFA500" stroke-width="200" fill-opacity="0.6" d="M -10762 -22448 C -15790 -28509 -40252 -33517 -47682 -36123 C -40347 -33259 -18524 -21125 -10762 -22448"></path><path stroke="#FF00FF" fill="#FF00FF" stroke-width="200" fill-opacity="0.6" d="M -10661 -22388 C -16085 -25131 -34943 -21148 -41005 -20706 C -34931 -20937 -15749 -19063 -10661 -22388"></path><path stroke="#00FFFF" fill="#00FFFF" stroke-width="200" fill-opacity="0.6" d="M -10643 -22389 C -18789 -23756 -41648 -10967 -49335 -7943 C -41547 -10697 -15900 -16018 -10643 -22389"></path><path stroke="#C0C0C0" fill="#C0C0C0" stroke-width="200" fill-opacity="0.6" d="M -10578 -22461 C -16313 -20105 -25816 -2895 -29518 2078 C -25645 -2763 -11405 -16317 -10578 -22461"></path><path stroke="#0000FF" fill="#0000FF" stroke-width="200" fill-opacity="0.6" d="M -10474 -22375 C -14562 -28266 -36367 -34720 -42906 -37664 C -36474 -34494 -17620 -21780 -10474 -22375"></path><path stroke="#00FF00" fill="#00FF00" stroke-width="200" fill-opacity="0.6" d="M -10551 -22759 C -16193 -21978 -28595 -8848 -33029 -5273 C -28473 -8691 -12696 -17482 -10551 -22759"></path><path stroke="#FFA500" fill="#FFA500" stroke-width="200" fill-opacity="0.6" d="M -10396 -22557 C -6446 -28579 -8631 -51310 -8347 -58506 C -8882 -51325 -13636 -28989 -10396 -22557"></path><path stroke="#FFFF00" fill="#FFFF00" stroke-width="200" fill-opacity="0.6" d="M -5154 -24753 C -12953 -25896 -34510 -13242 -41785 -10206 C -34409 -12987 -10044 -18570 -5154 -24753"></path><path stroke="#0000FF" fill="#0000FF" stroke-width="200" fill-opacity="0.6" d="M -5053 -24992 C -10704 -27447 -29555 -22302 -35665 -21497 C -29531 -22089 -10005 -21325 -5053 -24992"></path><path stroke="#FFFF00" fill="#FFFF00" stroke-width="200" fill-opacity="0.6" d="M 7438 -22243 C 15295 -19662 39849 -28875 47914 -30709 C 39790 -29158 13602 -27757 7438 -22243"></path><path stroke="#00FFFF" fill="#00FFFF" stroke-width="200" fill-opacity="0.6" d="M 7189 -22392 C 14273 -21488 33589 -33313 40128 -36187 C 33493 -33543 11514 -28075 7189 -22392"></path><path stroke="#0000FF" fill="#0000FF" stroke-width="200" fill-opacity="0.6" d="M 6780 -22353 C 11233 -28208 10624 -51524 11426 -58835 C 10370 -51556 3936 -29137 6780 -22353"></path><path stroke="#0000FF" fill="#0000FF" stroke-width="200" fill-opacity="0.6" d="M 6961 -22217 C 12318 -19032 31885 -21788 38117 -21817 C 31888 -22006 12398 -25263 6961 -22217"></path><path stroke="#0000FF" fill="#0000FF" stroke-width="200" fill-opacity="0.6" d="M 7010 -21975 C 11851 -18761 30203 -20423 36008 -20162 C 30216 -20626 12214 -24560 7010 -21975"></path><path stroke="#00FFFF" fill="#00FFFF" stroke-width="200" fill-opacity="0.6" d="M 6560 -21780 C 12337 -27848 14580 -54321 16407 -62498 C 14296 -54390 4194 -29817 6560 -21780"></path></svg></svg>