<svg class="svg-plant" viewBox="0 0 1 1" preserveAspectRatio="xMidYMax meet" xmlns="http://www.w3.org/2000/svg" xmlns:xlink="http://www.w3.org/1999/xlink"><svg class="svg-plant-pot" viewBox="0 0 100 100" preserveAspectRatio="xMidYMax meet" xmlns="http://www.w3.org/2000/svg" xmlns:xlink="http://www.w3.org/1999/xlink" x="0" y="0.6699999999999999" width="1" height="0.33"><path fill="#fc7" stroke="#da5" stroke-width="2" d="M 1 1 L 99 1 L 97 20 L 95 20 L 84 99 L 16 99 L 5 20 L 3 20 Z"></path></svg><svg class="svg-plant-body" viewBox="-51500 -86000 103000 86000" preserveAspectRatio="xMidYMax meet" xmlns="http://www.w3.org/2000/svg" xmlns:xlink="http://www.w3.org/1999/xlink" x="0" y="0" width="1" height="0.6699999999999999"><path fill="#400" stroke="#931" stroke-width="75" d="M -4973 0 L -5764 -10615 L -874 -10342 L -469 0 Z"></path><path fill="#400" stroke="#931" stroke-width="75" d="M -5764 -10615 L -5527 -15887 L -507 -15908 L -874 -10342 Z"></path><path fill="#400" stroke="#931" stroke-width="75" d="M -5527 -15887 L -5582 -25545 L -531 -24975 L -507 -15908 Z"></path><path fill="#400" stroke="#931" stroke-width="75" d="M -5582 -25545 L -4221 -36525 L 616 -36241 L -531 -24975 Z"></path><path fill="#400" stroke="#931" stroke-width="75" d="M -4221 -36525 L -5455 -40744 L -3497 -41897 L 616 -36241 Z"></path><path fill="#400" stroke="#931" stroke-width="75" d="M -5455 -40744 L -8088 -45167 L -6066 -46308 L -3497 -41897 Z"></path><path fill="#400" stroke="#931" stroke-width="75" d="M -4221 -36525 L -7258 -37513 L -6140 -40078 L 616 -36241 Z"></path><path fill="#400" stroke="#931" stroke-width="75" d="M -7258 -37513 L -9958 -38879 L -8752 -41029 L -6140 -40078 Z"></path><path fill="#400" stroke="#931" stroke-width="75" d="M -4221 -36525 L -2932 -38431 L -913 -38817 L 616 -36241 Z"></path><path fill="#400" stroke="#931" stroke-width="75" d="M -2932 -38431 L -4087 -42854 L -1442 -43198 L -913 -38817 Z"></path><path stroke="#FF0000" fill="#FF0000" stroke-width="200" fill-opacity="0.6" d="M -6960 -45480 C -4269 -51911 -10380 -73157 -11385 -80056 C -10621 -73127 -11184 -51026 -6960 -45480"></path><path stroke="#FFFF00" fill="#FFFF00" stroke-width="200" fill-opacity="0.6" d="M -6828 -45401 C -8836 -50748 -24415 -59986 -28891 -63535 C -24542 -59832 -12463 -46336 -6828 -45401"></path><path stroke="#FFFF00" fill="#FFFF00" stroke-width="200" fill-opacity="0.6" d="M -6751 -45463 C -6299 -51167 -16502 -66170 -19053 -71293 C -16683 -66084 -11465 -48707 -6751 -45463"></path><path stroke="#FF00FF" fill="#FF00FF" stroke-width="200" fill-opacity="0.6" d="M -6944 -45249 C -1475 -47931 6724 -65419 10030 -70534 C 6548 -65537 -6532 -51326 -6944 -45249"></path><path stroke="#800080" fill="#800080" stroke-width="200" fill-opacity="0.6" d="M -6651 -45318 C -12753 -49097 -35345 -46332 -42522 -46429 C -35353 -46081 -12975 -41923 -6651 -45318"></path><path stroke="#0000FF" fill="#0000FF" stroke-width="200" fill-opacity="0.6" d="M -6725 -45227 C 228 -49599 8744 -74214 12452 -81543 C 8490 -74348 -7035 -53434 -6725 -45227"></path><path stroke="#00FF00" fill="#00FF00" stroke-width="200" fill-opacity="0.6" d="M -6817 -44982 C -7857 -51050 -22474 -63992 -26490 -68658 C -22639 -63855 -12592 -47115 -6817 -44982"></path><path stroke="#FFA500" fill="#FFA500" stroke-width="200" fill-opacity="0.6" d="M -6657 -44958 C -2101 -49446 256 -69590 1850 -75784 C 41 -69649 -8266 -51148 -6657 -44958"></path><path stroke="#808000" fill="#808000" stroke-width="200" fill-opacity="0.6" d="M -2581 -42624 C 4194 -44720 16788 -63352 21516 -68637 C 16606 -63520 -1009 -49540 -2581 -42624"></path><path stroke="#0000FF" fill="#0000FF" stroke-width="200" fill-opacity="0.6" d="M -2739 -42760 C 3267 -41616 20390 -50711 26127 -52824 C 20320 -50912 1254 -47390 -2739 -42760"></path><path stroke="#FF0000" fill="#FF0000" stroke-width="200" fill-opacity="0.6" d="M -2964 -42696 C 2250 -46007 8573 -64545 11338 -70068 C 8382 -64645 -3225 -48867 -2964 -42696"></path><path stroke="#0000FF" fill="#0000FF" stroke-width="200" fill-opacity="0.6" d="M -2463 -42442 C 3209 -47265 7664 -70450 10043 -77506 C 7419 -70538 -3803 -49766 -2463 -42442"></path><path stroke="#FF00FF" fill="#FF00FF" stroke-width="200" fill-opacity="0.6" d="M -2661 -42507 C -1513 -48373 -10318 -65156 -12355 -70774 C -10515 -65088 -7167 -46434 -2661 -42507"></path><path stroke="#FF0000" fill="#FF0000" stroke-width="200" fill-opacity="0.6" d="M -2714 -42338 C -8308 -46238 -29883 -44779 -36686 -45242 C -29903 -44542 -8888 -39443 -2714 -42338"></path><path stroke="#00FFFF" fill="#00FFFF" stroke-width="200" fill-opacity="0.6" d="M -2780 -42396 C -3128 -48756 -16612 -63795 -20185 -69068 C -16798 -63673 -8462 -45275 -2780 -42396"></path><path stroke="#00FFFF" fill="#00FFFF" stroke-width="200" fill-opacity="0.6" d="M -2406 -42428 C 455 -47824 -3178 -66847 -3504 -72946 C -3391 -66840 -5648 -47604 -2406 -42428"></path><path stroke="#808000" fill="#808000" stroke-width="200" fill-opacity="0.6" d="M -2659 -42188 C -4669 -48968 -23099 -61746 -28315 -66523 C -23269 -61567 -9536 -43837 -2659 -42188"></path><path stroke="#FF00FF" fill="#FF00FF" stroke-width="200" fill-opacity="0.6" d="M -2549 -42228 C -4809 -49217 -24270 -62013 -29806 -66839 C -24441 -61823 -9731 -43765 -2549 -42228"></path><path stroke="#FFA500" fill="#FFA500" stroke-width="200" fill-opacity="0.6" d="M -9094 -39901 C -16246 -38348 -30847 -20309 -36177 -15294 C -30675 -20120 -11324 -32931 -9094 -39901"></path><path stroke="#FFFF00" fill="#FFFF00" stroke-width="200" fill-opacity="0.6" d="M -8923 -39776 C -5864 -46317 -11283 -68566 -12030 -75749 C -11534 -68545 -13058 -45696 -8923 -39776"></path><path stroke="#FFFF00" fill="#FFFF00" stroke-width="200" fill-opacity="0.6" d="M -8802 -39794 C -10210 -46461 -26927 -60153 -31568 -65143 C -27104 -59994 -15280 -41908 -8802 -39794"></path><path stroke="#800080" fill="#800080" stroke-width="200" fill-opacity="0.6" d="M -8808 -39848 C -6703 -46177 -14061 -66006 -15517 -72515 C -14289 -65960 -13237 -44836 -8808 -39848"></path><path stroke="#FF0000" fill="#FF0000" stroke-width="200" fill-opacity="0.6" d="M -8884 -39610 C -8057 -45170 -17050 -60559 -19205 -65750 C -17232 -60487 -13286 -43106 -8884 -39610"></path><path stroke="#FF0000" fill="#FF0000" stroke-width="200" fill-opacity="0.6" d="M -8934 -39936 C -15838 -42832 -38659 -36290 -46069 -35217 C -38626 -36031 -14894 -35405 -8934 -39936"></path><path stroke="#800080" fill="#800080" stroke-width="200" fill-opacity="0.6" d="M -8780 -39910 C -5884 -44729 -8288 -62392 -8288 -68014 C -8485 -62396 -11505 -44827 -8780 -39910"></path></svg></svg>