<svg class="svg-plant" viewBox="0 0 1 1" preserveAspectRatio="xMidYMax meet" xmlns="http://www.w3.org/2000/svg" xmlns:xlink="http://www.w3.org/1999/xlink"><svg class="svg-plant-pot" viewBox="0 0 100 100" preserveAspectRatio="xMidYMax meet" xmlns="http://www.w3.org/2000/svg" xmlns:xlink="http://www.w3.org/1999/xlink" x="0" y="0.6699999999999999" width="1" height="0.33"><path fill="#fc7" stroke="#da5" stroke-width="2" d="M 1 1 L 99 1 L 97 20 L 95 20 L 84 99 L 16 99 L 5 20 L 3 20 Z"></path></svg><svg class="svg-plant-body" viewBox="-23000 -41000 46000 41000" preserveAspectRatio="xMidYMax meet" xmlns="http://www.w3.org/2000/svg" xmlns:xlink="http://www.w3.org/1999/xlink" x="0" y="0" width="1" height="0.6699999999999999"><path stroke="#931" fill="#400" stroke-width="75" d="M -1640 0 L -1734 -11858 L 384 -12031 L 830 0 Z"></path><path stroke="#931" fill="#400" stroke-width="75" d="M -1734 -11858 L -1200 -12925 L -546 -13086 L 384 -12031 Z"></path><path stroke="#041" fill="orange" stroke-width="75" d="M -1200 -12925 L -2108 -16154 L -1274 -16469 L -546 -13086 Z"></path><path stroke="#041" fill="orange" stroke-width="75" d="M -2108 -16154 L -2833 -18604 L -2353 -18799 L -1274 -16469 Z"></path><path stroke="#931" fill="#400" stroke-width="75" d="M -1734 -11858 L -1059 -12977 L -508 -13193 L 384 -12031 Z"></path><path stroke="#041" fill="orange" stroke-width="75" d="M -1059 -12977 L -2615 -16794 L -2040 -17241 L -508 -13193 Z"></path><path stroke="#041" fill="orange" stroke-width="75" d="M -2615 -16794 L -4523 -19113 L -4019 -19925 L -2040 -17241 Z"></path><path stroke="#931" fill="#400" stroke-width="75" d="M -1734 -11858 L -1722 -13240 L -847 -13254 L 384 -12031 Z"></path><path stroke="#041" fill="orange" stroke-width="75" d="M -1722 -13240 L -1655 -18624 L -1089 -18408 L -847 -13254 Z"></path><path stroke="#041" fill="orange" stroke-width="75" d="M -1655 -18624 L -174 -22410 L 251 -22007 L -1089 -18408 Z"></path><path stroke="#041" fill="orange" stroke-width="75" d="M -174 -22410 L 1935 -24668 L 2220 -24053 L 251 -22007 Z"></path><path stroke="#041" fill="orange" stroke-width="75" d="M 1935 -24668 L 4114 -25663 L 4074 -24930 L 2220 -24053 Z"></path><path stroke="#931" fill="#400" stroke-width="75" d="M -1734 -11858 L -1055 -12888 L -527 -13139 L 384 -12031 Z"></path><path stroke="#041" fill="orange" stroke-width="75" d="M -1055 -12888 L -2361 -15429 L -1809 -16039 L -527 -13139 Z"></path><path stroke="#041" fill="orange" stroke-width="75" d="M -2361 -15429 L -3864 -16953 L -3658 -17547 L -1809 -16039 Z"></path><path stroke="#041" fill="orange" stroke-width="75" d="M -3864 -16953 L -5317 -17482 L -5407 -18130 L -3658 -17547 Z"></path><path stroke="#931" fill="#400" stroke-width="75" d="M -1734 -11858 L -625 -13885 L 19 -13446 L 384 -12031 Z"></path><path stroke="#041" fill="orange" stroke-width="75" d="M -625 -13885 L 2575 -18314 L 2802 -17800 L 19 -13446 Z"></path><path stroke="#041" fill="orange" stroke-width="75" d="M 2575 -18314 L 6368 -20011 L 6302 -19321 L 2802 -17800 Z"></path><path stroke="#041" fill="orange" stroke-width="75" d="M 6368 -20011 L 9499 -19660 L 9121 -19101 L 6302 -19321 Z"></path><path stroke="#0000FF" fill="#0000FF" stroke-width="200" fill-opacity="0.6" d="M 4013 -25259 C 10941 -14973 15945 -27889 15346 -30296 C 13961 -32353 1021 -37294 4013 -25259"></path><path stroke="#C0C0C0" fill="#C0C0C0" stroke-width="200" fill-opacity="0.6" d="M 9191 -19392 C 8884 -6592 20810 -14482 21743 -16867 C 21805 -19427 13857 -31315 9191 -19392"></path><path stroke="#0000FF" fill="#0000FF" stroke-width="200" fill-opacity="0.6" d="M -5298 -17784 C -3798 -35007 -20539 -25386 -21999 -22252 C -22299 -18807 -12598 -2113 -5298 -17784"></path><path stroke="#800080" fill="#800080" stroke-width="200" fill-opacity="0.6" d="M -4193 -19419 C 7773 -31403 -10849 -34719 -13917 -33285 C -16311 -30888 -19537 -12251 -4193 -19419"></path><path stroke="#00FFFF" fill="#00FFFF" stroke-width="200" fill-opacity="0.6" d="M -2557 -18606 C 12386 -26589 -4469 -35186 -7824 -34708 C -10813 -33112 -19330 -16215 -2557 -18606"></path></svg></svg>