<svg xmlns="http://www.w3.org/2000/svg" width="793.701" height="1122.52" viewBox="0 0 210 297">
    <g fill="#fff" stroke="#000">
        <path
            d="M98.614 61.404l16.853-5.673c4.338-1.335 4.005-2.67 4.505-3.838s.834-12.181-.334-12.848 1.168-1.835-5.673-3.337-16.019-1.168-18.688-1.835-8.677-1.669-11.013-2.336-10.178-1.835-12.014-2.67-12.681-6.007-13.682-6.007-10.345-1.168-14.183-.667-4.839.501-5.173-1.168-.834-5.006 2.002-5.173 7.175.501 10.512 1.001 16.185 4.505 18.521 4.839 7.175 3.838 10.345 4.672 11.18 1.669 17.854 3.003 18.855 2.67 20.19 3.337 10.345 2.837 12.848 3.671 11.513 6.007 13.516 7.008 12.848 9.344 14.684 9.344 7.342 4.505 10.345 5.173 6.674 2.837 10.512 2.169 4.005-3.17 5.506-1.835 2.67 2.837 2.002 3.838 3.838 1.001.334 2.002-9.678 2.67-14.35 1.335-11.18-4.505-16.519-7.008-12.681-10.178-20.357-13.516c-6.582-2.862-15.017-7.342-13.682-6.174s1.835 5.34 1.669 8.677-.501 6.674.334 7.842 3.504 3.838 5.34 4.672 6.341 4.005 6.341 4.005l1.835 1.335-5.006 1.502-5.506-5.34s-3.671-2.503-4.338-1.502-.667 3.838-1.168 5.173-4.505 6.007-4.672 7.175-1.502.667-1.502 2.837-.334 5.173-.334 5.173l-5.006-.167-1.335-.501 7.175-14.183h0s2.503-5.673 1.835-6.341-4.839.667-7.175 1.502-13.682 3.671-14.517 6.007.667-6.174 1.168-5.173z" />
        <g transform="rotate(345.604)">
            <ellipse cx="63.165" cy="83.662" rx="17.353" ry="17.02" />
            <ellipse cx="41.908" cy="100.583" rx="17.353" ry="17.02" />
            <g stroke-width=".953">
                <ellipse cx="16.431" cy="114.089" rx="16.542" ry="16.224" />
                <ellipse cx="30.518" cy="130.792" rx="16.542" ry="16.224" />
            </g>
        </g>
        <g transform="rotate(180.417)">
            <ellipse cx="-113.12" cy="-271.082" rx="14.92" ry="14.633" stroke-width=".86" />
            <g stroke-width=".832">
                <ellipse cx="-138.254" cy="-205.623" rx="14.433" ry="14.156" />
                <ellipse cx="-108.155" cy="-244.821" rx="14.433" ry="14.156" />
                <ellipse cx="-126.018" cy="-223.963" rx="14.433" ry="14.156" />
                <ellipse cx="-99.592" cy="-218.49" rx="14.433" ry="14.156" />
                <ellipse cx="-133.168" cy="-188.311" rx="14.433" ry="14.156" />
                <ellipse cx="-112.929" cy="-199.757" rx="14.433" ry="14.156" />
                <ellipse cx="-92.751" cy="-194.874" rx="14.433" ry="14.156" />
                <ellipse cx="-145.167" cy="-172.846" rx="14.433" ry="14.156" />
                <ellipse cx="-112.942" cy="-174.711" rx="14.433" ry="14.156" />
                <ellipse cx="-91.389" cy="-167.664" rx="14.433" ry="14.156" />
                <ellipse cx="-129.204" cy="-157.265" rx="14.433" ry="14.156" />
                <ellipse cx="-107.77" cy="-148.633" rx="14.433" ry="14.156" />
            </g>
            <g stroke-width=".916">
                <ellipse cx="-83.167" cy="-140.357" rx="15.893" ry="15.587" />
                <ellipse cx="-85.867" cy="-109.926" rx="15.893" ry="15.587" />
            </g>
            <g stroke-width=".878">
                <ellipse cx="-107.118" cy="-121.153" rx="15.244" ry="14.951" />
                <ellipse cx="-127.984" cy="-130.876" rx="15.244" ry="14.951" />
                <ellipse cx="-149.47" cy="-146.526" rx="15.244" ry="14.951" />
            </g>
            <g stroke-width=".916">
                <ellipse cx="-98.717" cy="-86.733" rx="15.893" ry="15.587" />
                <ellipse cx="-117.838" cy="-93.969" rx="15.893" ry="15.587" />
                <ellipse cx="-140.84" cy="-79.971" rx="15.893" ry="15.587" />
                <ellipse cx="-140.578" cy="-105.487" rx="15.893" ry="15.587" />
                <ellipse cx="-166.799" cy="-91.924" rx="15.893" ry="15.587" />
                <ellipse cx="-157.498" cy="-123.001" rx="15.893" ry="15.587" />
            </g>
        </g>
        <ellipse cx="15.321" cy="85.168" rx="15.538" ry="15.239" transform="rotate(345.604)" stroke-width=".895" />
        <ellipse cx="-129.127" cy="-247.852" rx="14.433" ry="14.156" transform="rotate(180.417)" stroke-width=".832" />
        <ellipse cx="32.802" cy="69.352" rx="17.353" ry="17.02" transform="rotate(345.604)" />
    </g><text xml:space="preserve" x="44.24" y="58.816" transform="scale(.99998019 1.0000198)" font-size="4.939"
        fill="#fff" stroke="#000">
        <tspan x="44.24" y="58.816" font-weight="normal" font-family="Arial">one</tspan>
    </text>
</svg>