<svg xmlns="http://www.w3.org/2000/svg" xml:space="preserve" width="210mm" height="297mm" viewBox="0 0 210 297"><path d="M98.614 61.404s12.515-4.338 16.853-5.673c4.338-1.335 4.005-2.67 4.505-3.838.5-1.168.834-12.18-.334-12.848-1.168-.667 1.168-1.835-5.673-3.337-6.841-1.502-16.018-1.168-18.688-1.835-2.67-.668-8.677-1.67-11.013-2.337-2.336-.667-10.178-1.835-12.014-2.67-1.835-.834-12.681-6.006-13.682-6.006-1.001 0-10.346-1.168-14.183-.668-3.838.5-4.84.5-5.173-1.168-.334-1.668-.834-5.005 2.002-5.172 2.837-.167 7.175.5 10.513 1 3.337.501 16.185 4.506 18.52 4.84 2.337.333 7.176 3.838 10.346 4.672 3.17.834 11.18 1.668 17.854 3.003 6.675 1.335 18.855 2.67 20.19 3.337 1.335.668 10.346 2.837 12.848 3.671 2.503.835 11.514 6.007 13.516 7.009 2.002 1 12.848 9.344 14.684 9.344 1.835 0 7.342 4.505 10.345 5.172 3.003.668 6.674 2.837 10.512 2.17 3.838-.668 4.005-3.17 5.507-1.836 1.501 1.335 2.67 2.837 2.002 3.838-.668 1.001 3.838 1.001.334 2.002s-9.678 2.67-14.35 1.335c-4.672-1.335-11.18-4.505-16.52-7.008-5.339-2.503-12.68-10.179-20.356-13.516-6.582-2.861-15.018-7.342-13.683-6.174 1.335 1.168 1.836 5.34 1.669 8.677-.167 3.337-.5 6.675.333 7.843.835 1.168 3.505 3.837 5.34 4.672 1.835.834 6.34 4.004 6.34 4.004l1.836 1.335-5.006 1.502-5.506-5.34s-3.671-2.503-4.338-1.501c-.668 1-.668 3.837-1.168 5.172-.501 1.335-4.506 6.007-4.672 7.175-.167 1.168-1.502.668-1.502 2.837s-.334 5.173-.334 5.173l-5.006-.167-1.335-.5 7.175-14.184s2.503-5.673 1.836-6.34c-.668-.668-4.84.667-7.175 1.501-2.336.834-13.683 3.671-14.517 6.007-.834 2.336.667-6.174 1.168-5.173z" style="fill:#fff;stroke:#000;stroke-width:1;stroke-dasharray:none;stroke-opacity:1"/><ellipse cx="63.165" cy="83.662" rx="17.353" ry="17.02" style="fill:#fff;stroke:#000;stroke-width:1;stroke-dasharray:none;stroke-opacity:1" transform="rotate(-14.396)"/><ellipse cx="41.908" cy="100.583" rx="17.353" ry="17.02" style="fill:#fff;stroke:#000;stroke-width:1;stroke-dasharray:none;stroke-opacity:1" transform="rotate(-14.396)"/><ellipse cx="16.431" cy="114.089" rx="16.542" ry="16.224" style="fill:#fff;stroke:#000;stroke-width:.953225;stroke-dasharray:none;stroke-opacity:1" transform="rotate(-14.396)"/><ellipse cx="30.518" cy="130.792" rx="16.542" ry="16.224" style="fill:#fff;stroke:#000;stroke-width:.953225;stroke-dasharray:none;stroke-opacity:1" transform="rotate(-14.396)"/><ellipse cx="-113.12" cy="-271.082" rx="14.92" ry="14.633" style="fill:#fff;stroke:#000;stroke-width:.859764;stroke-dasharray:none;stroke-opacity:1" transform="rotate(-179.583)"/><ellipse cx="-138.254" cy="-205.623" rx="14.433" ry="14.156" style="fill:#fff;stroke:#000;stroke-width:.831726;stroke-dasharray:none;stroke-opacity:1" transform="rotate(-179.583)"/><ellipse cx="-108.155" cy="-244.821" rx="14.433" ry="14.156" style="fill:#fff;stroke:#000;stroke-width:.831726;stroke-dasharray:none;stroke-opacity:1" transform="rotate(-179.583)"/><ellipse cx="-126.018" cy="-223.963" rx="14.433" ry="14.156" style="fill:#fff;stroke:#000;stroke-width:.831726;stroke-dasharray:none;stroke-opacity:1" transform="rotate(-179.583)"/><ellipse cx="-99.592" cy="-218.49" rx="14.433" ry="14.156" style="fill:#fff;stroke:#000;stroke-width:.831726;stroke-dasharray:none;stroke-opacity:1" transform="rotate(-179.583)"/><ellipse cx="-133.168" cy="-188.311" rx="14.433" ry="14.156" style="fill:#fff;stroke:#000;stroke-width:.831726;stroke-dasharray:none;stroke-opacity:1" transform="rotate(-179.583)"/><ellipse cx="-112.929" cy="-199.757" rx="14.433" ry="14.156" style="fill:#fff;stroke:#000;stroke-width:.831726;stroke-dasharray:none;stroke-opacity:1" transform="rotate(-179.583)"/><ellipse cx="-92.751" cy="-194.874" rx="14.433" ry="14.156" style="fill:#fff;stroke:#000;stroke-width:.831726;stroke-dasharray:none;stroke-opacity:1" transform="rotate(-179.583)"/><ellipse cx="-145.167" cy="-172.846" rx="14.433" ry="14.156" style="fill:#fff;stroke:#000;stroke-width:.831726;stroke-dasharray:none;stroke-opacity:1" transform="rotate(-179.583)"/><ellipse cx="-112.942" cy="-174.711" rx="14.433" ry="14.156" style="fill:#fff;stroke:#000;stroke-width:.831726;stroke-dasharray:none;stroke-opacity:1" transform="rotate(-179.583)"/><ellipse cx="-91.389" cy="-167.664" rx="14.433" ry="14.156" style="fill:#fff;stroke:#000;stroke-width:.831726;stroke-dasharray:none;stroke-opacity:1" transform="rotate(-179.583)"/><ellipse cx="-129.204" cy="-157.265" rx="14.433" ry="14.156" style="fill:#fff;stroke:#000;stroke-width:.831726;stroke-dasharray:none;stroke-opacity:1" transform="rotate(-179.583)"/><ellipse cx="-107.77" cy="-148.633" rx="14.433" ry="14.156" style="fill:#fff;stroke:#000;stroke-width:.831726;stroke-dasharray:none;stroke-opacity:1" transform="rotate(-179.583)"/><ellipse cx="-83.167" cy="-140.357" rx="15.893" ry="15.587" style="fill:#fff;stroke:#000;stroke-width:.915841;stroke-dasharray:none;stroke-opacity:1" transform="rotate(-179.583)"/><ellipse cx="-85.867" cy="-109.926" rx="15.893" ry="15.587" style="fill:#fff;stroke:#000;stroke-width:.915841;stroke-dasharray:none;stroke-opacity:1" transform="rotate(-179.583)"/><ellipse cx="-107.118" cy="-121.153" rx="15.244" ry="14.951" style="fill:#fff;stroke:#000;stroke-width:.878457;stroke-dasharray:none;stroke-opacity:1" transform="rotate(-179.583)"/><ellipse cx="-127.984" cy="-130.876" rx="15.244" ry="14.951" style="fill:#fff;stroke:#000;stroke-width:.878457;stroke-dasharray:none;stroke-opacity:1" transform="rotate(-179.583)"/><ellipse cx="-149.47" cy="-146.526" rx="15.244" ry="14.951" style="fill:#fff;stroke:#000;stroke-width:.878457;stroke-dasharray:none;stroke-opacity:1" transform="rotate(-179.583)"/><ellipse cx="-98.717" cy="-86.733" rx="15.893" ry="15.587" style="fill:#fff;stroke:#000;stroke-width:.915841;stroke-dasharray:none;stroke-opacity:1" transform="rotate(-179.583)"/><ellipse cx="-117.838" cy="-93.969" rx="15.893" ry="15.587" style="fill:#fff;stroke:#000;stroke-width:.915841;stroke-dasharray:none;stroke-opacity:1" transform="rotate(-179.583)"/><ellipse cx="-140.84" cy="-79.971" rx="15.893" ry="15.587" style="fill:#fff;stroke:#000;stroke-width:.915841;stroke-dasharray:none;stroke-opacity:1" transform="rotate(-179.583)"/><ellipse cx="-140.578" cy="-105.487" rx="15.893" ry="15.587" style="fill:#fff;stroke:#000;stroke-width:.915841;stroke-dasharray:none;stroke-opacity:1" transform="rotate(-179.583)"/><ellipse cx="-166.799" cy="-91.924" rx="15.893" ry="15.587" style="fill:#fff;stroke:#000;stroke-width:.915841;stroke-dasharray:none;stroke-opacity:1" transform="rotate(-179.583)"/><ellipse cx="-157.498" cy="-123.001" rx="15.893" ry="15.587" style="fill:#fff;stroke:#000;stroke-width:.915841;stroke-dasharray:none;stroke-opacity:1" transform="rotate(-179.583)"/><ellipse cx="15.321" cy="85.168" rx="15.538" ry="15.239" style="display:inline;fill:#fff;stroke:#000;stroke-width:.895379;stroke-dasharray:none;stroke-opacity:1" transform="rotate(-14.396)"/><ellipse cx="-129.127" cy="-247.852" rx="14.433" ry="14.156" style="fill:#fff;stroke:#000;stroke-width:.831726;stroke-dasharray:none;stroke-opacity:1" transform="rotate(-179.583)"/><ellipse cx="32.802" cy="69.352" rx="17.353" ry="17.02" style="fill:#fff;stroke:#000;stroke-width:1;stroke-dasharray:none;stroke-opacity:1" transform="rotate(-14.396)"/><text xml:space="preserve" x="44.24" y="58.816" style="font-size:4.93882px;fill:#fff;stroke:#000;stroke-width:.999985;stroke-dasharray:none;stroke-opacity:1" transform="scale(.99998 1.00002)"><tspan x="44.24" y="58.816" style="font-style:normal;font-variant:normal;font-weight:400;font-stretch:normal;font-size:4.93882px;font-family:Arial;-inkscape-font-specification:Arial;stroke-width:.999985">one</tspan></text></svg>