<svg width="210mm" height="297mm" viewBox="0 0 210 297" xml:space="preserve" xmlns="http://www.w3.org/2000/svg">
    <path style="fill:#fff;stroke:#000;stroke-width:1;stroke-dasharray:none;stroke-opacity:1"
        d="M98.614 61.404s12.515-4.338 16.853-5.673c4.338-1.335 4.005-2.67 4.505-3.838.5-1.168.834-12.18-.334-12.848-1.168-.667 1.168-1.835-5.673-3.337-6.841-1.502-16.018-1.168-18.688-1.835-2.67-.668-8.677-1.67-11.013-2.337-2.336-.667-10.178-1.835-12.014-2.67-1.835-.834-12.681-6.006-13.682-6.006-1.001 0-10.346-1.168-14.183-.668-3.838.5 2.036-.68-3.437-.89-1.7-.065-.194-4.51 2.643-4.677 2.837-.167 4.798-.273 8.136.228 3.337.5 16.185 4.505 18.52 4.839 2.337.333 7.176 3.838 10.346 4.672 3.17.834 11.18 1.668 17.854 3.003 6.675 1.335 18.855 2.67 20.19 3.337 1.335.668 10.346 2.837 12.848 3.671 2.503.835 11.514 6.007 13.516 7.009 2.002 1 12.848 9.344 14.684 9.344 1.835 0 7.342 4.505 10.345 5.172 3.003.668 6.674 2.837 10.512 2.17 3.838-.668 4.005-3.17 5.507-1.836 1.501 1.335 2.67 2.837 2.002 3.838-.668 1.001 3.838 1.001.334 2.002s-9.678 2.67-14.35 1.335c-4.672-1.335-11.18-4.505-16.52-7.008-5.339-2.503-12.68-10.179-20.356-13.516-6.582-2.861-15.018-7.342-13.683-6.174 1.335 1.168 1.836 5.34 1.669 8.677-.167 3.337-.5 6.675.333 7.843.835 1.168 3.505 3.837 5.34 4.672 1.835.834 6.34 4.004 6.34 4.004l1.836 1.335-5.006 1.502-5.506-5.34s-3.671-2.503-4.338-1.501c-.668 1-.668 3.837-1.168 5.172-.501 1.335-4.506 6.007-4.672 7.175-.167 1.168-1.502.668-1.502 2.837s-.334 5.173-.334 5.173l-5.006-.167-1.335-.5 7.175-14.184s2.503-5.673 1.836-6.34c-.668-.668-4.84.667-7.175 1.501-2.336.834-13.683 3.671-14.517 6.007-.834 2.336.667-6.174 1.168-5.173z" />
    <ellipse style="fill:#fff;stroke:#000;stroke-width:1;stroke-dasharray:none;stroke-opacity:1" cx="63.165" cy="83.662"
        rx="17.353" ry="17.02" transform="rotate(-14.396)" />
    <ellipse style="fill:#fff;stroke:#000;stroke-width:1;stroke-dasharray:none;stroke-opacity:1" cx="41.908"
        cy="100.583" rx="17.353" ry="17.02" transform="rotate(-14.396)" />
    <ellipse style="fill:#fff;stroke:#000;stroke-width:.953225;stroke-dasharray:none;stroke-opacity:1" cx="16.431"
        cy="114.089" rx="16.542" ry="16.224" transform="rotate(-14.396)" />
    <ellipse style="fill:#fff;stroke:#000;stroke-width:.953225;stroke-dasharray:none;stroke-opacity:1" cx="30.518"
        cy="130.792" rx="16.542" ry="16.224" transform="rotate(-14.396)" />
    <ellipse style="fill:#fff;stroke:#000;stroke-width:.859764;stroke-dasharray:none;stroke-opacity:1" cx="-113.12"
        cy="-271.082" rx="14.92" ry="14.633" transform="rotate(-179.583)" />
    <ellipse style="fill:#fff;stroke:#000;stroke-width:.831726;stroke-dasharray:none;stroke-opacity:1" cx="-138.254"
        cy="-205.623" rx="14.433" ry="14.156" transform="rotate(-179.583)" />
    <ellipse style="fill:#fff;stroke:#000;stroke-width:.831726;stroke-dasharray:none;stroke-opacity:1" cx="-108.155"
        cy="-244.821" rx="14.433" ry="14.156" transform="rotate(-179.583)" />
    <ellipse style="fill:#fff;stroke:#000;stroke-width:.831726;stroke-dasharray:none;stroke-opacity:1" cx="-126.018"
        cy="-223.963" rx="14.433" ry="14.156" transform="rotate(-179.583)" />
    <ellipse style="fill:#fff;stroke:#000;stroke-width:.831726;stroke-dasharray:none;stroke-opacity:1" cx="-99.592"
        cy="-218.49" rx="14.433" ry="14.156" transform="rotate(-179.583)" />
    <ellipse style="fill:#fff;stroke:#000;stroke-width:.831726;stroke-dasharray:none;stroke-opacity:1" cx="-133.168"
        cy="-188.311" rx="14.433" ry="14.156" transform="rotate(-179.583)" />
    <ellipse style="fill:#fff;stroke:#000;stroke-width:.831726;stroke-dasharray:none;stroke-opacity:1" cx="-112.929"
        cy="-199.757" rx="14.433" ry="14.156" transform="rotate(-179.583)" />
    <ellipse style="fill:#fff;stroke:#000;stroke-width:.831726;stroke-dasharray:none;stroke-opacity:1" cx="-92.751"
        cy="-194.874" rx="14.433" ry="14.156" transform="rotate(-179.583)" />
    <ellipse style="fill:#fff;stroke:#000;stroke-width:.831726;stroke-dasharray:none;stroke-opacity:1" cx="-145.167"
        cy="-172.846" rx="14.433" ry="14.156" transform="rotate(-179.583)" />
    <ellipse style="fill:#fff;stroke:#000;stroke-width:.831726;stroke-dasharray:none;stroke-opacity:1" cx="-112.942"
        cy="-174.711" rx="14.433" ry="14.156" transform="rotate(-179.583)" />
    <ellipse style="fill:#fff;stroke:#000;stroke-width:.831726;stroke-dasharray:none;stroke-opacity:1" cx="-91.389"
        cy="-167.664" rx="14.433" ry="14.156" transform="rotate(-179.583)" />
    <ellipse style="fill:#fff;stroke:#000;stroke-width:.831726;stroke-dasharray:none;stroke-opacity:1" cx="-129.204"
        cy="-157.265" rx="14.433" ry="14.156" transform="rotate(-179.583)" />
    <ellipse style="fill:#fff;stroke:#000;stroke-width:.831726;stroke-dasharray:none;stroke-opacity:1" cx="-107.77"
        cy="-148.633" rx="14.433" ry="14.156" transform="rotate(-179.583)" />
    <ellipse style="fill:#fff;stroke:#000;stroke-width:.915841;stroke-dasharray:none;stroke-opacity:1" cx="-83.167"
        cy="-140.357" rx="15.893" ry="15.587" transform="rotate(-179.583)" />
    <ellipse style="fill:#fff;stroke:#000;stroke-width:.915841;stroke-dasharray:none;stroke-opacity:1" cx="-85.867"
        cy="-109.926" rx="15.893" ry="15.587" transform="rotate(-179.583)" />
    <ellipse style="fill:#fff;stroke:#000;stroke-width:.878457;stroke-dasharray:none;stroke-opacity:1" cx="-107.118"
        cy="-121.153" rx="15.244" ry="14.951" transform="rotate(-179.583)" />
    <ellipse style="fill:#fff;stroke:#000;stroke-width:.878457;stroke-dasharray:none;stroke-opacity:1" cx="-127.984"
        cy="-130.876" rx="15.244" ry="14.951" transform="rotate(-179.583)" />
    <ellipse style="fill:#fff;stroke:#000;stroke-width:.878457;stroke-dasharray:none;stroke-opacity:1" cx="-149.47"
        cy="-146.526" rx="15.244" ry="14.951" transform="rotate(-179.583)" />
    <ellipse style="fill:#fff;stroke:#000;stroke-width:.915841;stroke-dasharray:none;stroke-opacity:1" cx="-98.717"
        cy="-86.733" rx="15.893" ry="15.587" transform="rotate(-179.583)" />
    <ellipse style="fill:#fff;stroke:#000;stroke-width:.915841;stroke-dasharray:none;stroke-opacity:1" cx="-117.838"
        cy="-93.969" rx="15.893" ry="15.587" transform="rotate(-179.583)" />
    <ellipse style="fill:#fff;stroke:#000;stroke-width:.915841;stroke-dasharray:none;stroke-opacity:1" cx="-140.84"
        cy="-79.971" rx="15.893" ry="15.587" transform="rotate(-179.583)" />
    <ellipse style="fill:#fff;stroke:#000;stroke-width:.915841;stroke-dasharray:none;stroke-opacity:1" cx="-140.578"
        cy="-105.487" rx="15.893" ry="15.587" transform="rotate(-179.583)" />
    <ellipse style="fill:#fff;stroke:#000;stroke-width:.915841;stroke-dasharray:none;stroke-opacity:1" cx="-166.81"
        cy="-93.47" rx="15.893" ry="15.587" transform="rotate(-179.583)" />
    <ellipse style="fill:#fff;stroke:#000;stroke-width:.915841;stroke-dasharray:none;stroke-opacity:1" cx="-157.498"
        cy="-123.001" rx="15.893" ry="15.587" transform="rotate(-179.583)" />
    <ellipse style="display:inline;fill:#fff;stroke:#000;stroke-width:.895379;stroke-dasharray:none;stroke-opacity:1"
        cx="15.321" cy="85.168" rx="15.538" ry="15.239" transform="rotate(-14.396)" />
    <ellipse style="fill:#fff;stroke:#000;stroke-width:.831726;stroke-dasharray:none;stroke-opacity:1" cx="-129.127"
        cy="-247.852" rx="14.433" ry="14.156" transform="rotate(-179.583)" />
    <ellipse style="fill:#fff;stroke:#000;stroke-width:1;stroke-dasharray:none;stroke-opacity:1" cx="32.802" cy="69.352"
        rx="17.353" ry="17.02" transform="rotate(-14.396)" /><text xml:space="preserve"
        style="font-size:8.46667px;fill:#fff;stroke:#000;stroke-width:.999985;stroke-dasharray:none;stroke-opacity:1"
        x="46.67" y="62.571" transform="scale(.99998 1.00002)">
        <tspan
            style="font-style:normal;font-variant:normal;font-weight:400;font-stretch:normal;font-size:8.46667px;font-family:'Comic Sans MS';-inkscape-font-specification:'Comic Sans MS';font-variant-ligatures:normal;font-variant-caps:normal;font-variant-numeric:normal;font-variant-east-asian:normal;baseline-shift:baseline;stroke-width:.999985"
            x="46.67" y="62.571">1</tspan>
    </text><text xml:space="preserve"
        style="font-size:8.46667px;fill:#fff;stroke:#000;stroke-width:.999985;stroke-dasharray:none;stroke-opacity:1"
        x="33.03" y="83.269" transform="scale(.99998 1.00002)">
        <tspan
            style="font-style:normal;font-variant:normal;font-weight:400;font-stretch:normal;font-size:8.46667px;font-family:'Comic Sans MS';-inkscape-font-specification:'Comic Sans MS';font-variant-ligatures:normal;font-variant-caps:normal;font-variant-numeric:normal;font-variant-east-asian:normal;baseline-shift:baseline;stroke-width:.999985"
            x="33.03" y="83.269">7</tspan>
    </text><text xml:space="preserve"
        style="font-size:8.46667px;fill:#fff;stroke:#000;stroke-width:.999985;stroke-dasharray:none;stroke-opacity:1"
        x="79.637" y="68.732" transform="scale(.99998 1.00002)">
        <tspan
            style="font-style:normal;font-variant:normal;font-weight:400;font-stretch:normal;font-size:8.46667px;font-family:'Comic Sans MS';-inkscape-font-specification:'Comic Sans MS';font-variant-ligatures:normal;font-variant-caps:normal;font-variant-numeric:normal;font-variant-east-asian:normal;baseline-shift:baseline;stroke-width:.999985"
            x="79.637" y="68.732">2</tspan>
    </text><text xml:space="preserve"
        style="font-size:8.46667px;fill:#fff;stroke:#000;stroke-width:.999985;stroke-dasharray:none;stroke-opacity:1"
        x="46.67" y="62.571" transform="matrix(.99998 0 0 1.00002 47.636 27.88)">
        <tspan
            style="font-style:normal;font-variant:normal;font-weight:400;font-stretch:normal;font-size:8.46667px;font-family:'Comic Sans MS';-inkscape-font-specification:'Comic Sans MS';font-variant-ligatures:normal;font-variant-caps:normal;font-variant-numeric:normal;font-variant-east-asian:normal;baseline-shift:baseline;stroke-width:.999985"
            x="46.67" y="62.571">3</tspan>
    </text><text xml:space="preserve"
        style="font-size:8.46667px;fill:#fff;stroke:#000;stroke-width:.999985;stroke-dasharray:none;stroke-opacity:1"
        x="171.251" y="105.422" transform="matrix(.99998 0 0 1.00002 -57.141 -8.531)">
        <tspan
            style="font-style:normal;font-variant:normal;font-weight:400;font-stretch:normal;font-size:8.46667px;font-family:'Comic Sans MS';-inkscape-font-specification:'Comic Sans MS';font-variant-ligatures:normal;font-variant-caps:normal;font-variant-numeric:normal;font-variant-east-asian:normal;baseline-shift:baseline;stroke-width:.999985"
            x="171.251" y="105.422">4</tspan>
    </text><text xml:space="preserve"
        style="font-size:8.46667px;fill:#fff;stroke:#000;stroke-width:.999985;stroke-dasharray:none;stroke-opacity:1"
        x="90.311" y="56.683" transform="matrix(.99998 0 0 1.00002 47.636 27.88)">
        <tspan
            style="font-style:normal;font-variant:normal;font-weight:400;font-stretch:normal;font-size:8.46667px;font-family:'Comic Sans MS';-inkscape-font-specification:'Comic Sans MS';font-variant-ligatures:normal;font-variant-caps:normal;font-variant-numeric:normal;font-variant-east-asian:normal;baseline-shift:baseline;stroke-width:.999985"
            x="90.311" y="56.683">5</tspan>
    </text><text xml:space="preserve"
        style="font-size:8.46667px;fill:#fff;stroke:#000;stroke-width:.999985;stroke-dasharray:none;stroke-opacity:1"
        x="54.18" y="83.997" transform="matrix(.99998 0 0 1.00002 109.017 13.164)">
        <tspan
            style="font-style:normal;font-variant:normal;font-weight:400;font-stretch:normal;font-size:8.46667px;font-family:'Comic Sans MS';-inkscape-font-specification:'Comic Sans MS';font-variant-ligatures:normal;font-variant-caps:normal;font-variant-numeric:normal;font-variant-east-asian:normal;baseline-shift:baseline;stroke-width:.999985"
            x="54.18" y="83.997">6</tspan>
    </text><text xml:space="preserve"
        style="font-size:8.46667px;fill:#fff;stroke:#000;stroke-width:.999985;stroke-dasharray:none;stroke-opacity:1"
        x="46.67" y="62.571" transform="matrix(.99998 0 0 1.00002 15.174 26.919)">
        <tspan
            style="font-style:normal;font-variant:normal;font-weight:400;font-stretch:normal;font-size:8.46667px;font-family:'Comic Sans MS';-inkscape-font-specification:'Comic Sans MS';font-variant-ligatures:normal;font-variant-caps:normal;font-variant-numeric:normal;font-variant-east-asian:normal;baseline-shift:baseline;stroke-width:.999985"
            x="46.67" y="62.571">8</tspan>
    </text><text xml:space="preserve"
        style="font-size:8.46667px;fill:#fff;stroke:#000;stroke-width:.999985;stroke-dasharray:none;stroke-opacity:1"
        x="82.985" y="112.85" transform="scale(.99998 1.00002)">
        <tspan
            style="font-style:normal;font-variant:normal;font-weight:400;font-stretch:normal;font-size:8.46667px;font-family:'Comic Sans MS';-inkscape-font-specification:'Comic Sans MS';font-variant-ligatures:normal;font-variant-caps:normal;font-variant-numeric:normal;font-variant-east-asian:normal;baseline-shift:baseline;stroke-width:.999985"
            x="82.985" y="112.85">9</tspan>
    </text><text xml:space="preserve"
        style="font-size:8.46667px;fill:#fff;stroke:#000;stroke-width:.999985;stroke-dasharray:none;stroke-opacity:1"
        x="46.67" y="62.571" transform="matrix(.99998 0 0 1.00002 54.167 61.7)">
        <tspan
            style="font-style:normal;font-variant:normal;font-weight:400;font-stretch:normal;font-size:8.46667px;font-family:'Comic Sans MS';-inkscape-font-specification:'Comic Sans MS';font-variant-ligatures:normal;font-variant-caps:normal;font-variant-numeric:normal;font-variant-east-asian:normal;baseline-shift:baseline;stroke-width:.999985"
            x="46.67" y="62.571">10</tspan>
    </text><text xml:space="preserve"
        style="font-size:8.46667px;fill:#fff;stroke:#000;stroke-width:.999985;stroke-dasharray:none;stroke-opacity:1"
        x="47.728" y="63.1" transform="matrix(.99998 0 0 1.00002 87.556 46.694)">
        <tspan
            style="font-style:normal;font-variant:normal;font-weight:400;font-stretch:normal;font-size:8.46667px;font-family:'Comic Sans MS';-inkscape-font-specification:'Comic Sans MS';font-variant-ligatures:normal;font-variant-caps:normal;font-variant-numeric:normal;font-variant-east-asian:normal;baseline-shift:baseline;stroke-width:.999985"
            x="47.728" y="63.1">11</tspan>
    </text><text xml:space="preserve"
        style="font-size:8.46667px;fill:#fff;stroke:#000;stroke-width:.999985;stroke-dasharray:none;stroke-opacity:1"
        x="46.67" y="62.571" transform="matrix(.99998 0 0 1.00002 105.797 63.856)">
        <tspan
            style="font-style:normal;font-variant:normal;font-weight:400;font-stretch:normal;font-size:8.46667px;font-family:'Comic Sans MS';-inkscape-font-specification:'Comic Sans MS';font-variant-ligatures:normal;font-variant-caps:normal;font-variant-numeric:normal;font-variant-east-asian:normal;baseline-shift:baseline;stroke-width:.999985"
            x="46.67" y="62.571">12</tspan>
    </text><text xml:space="preserve"
        style="font-size:8.46667px;fill:#fff;stroke:#000;stroke-width:.999985;stroke-dasharray:none;stroke-opacity:1"
        x="-76.365" y="5.584" transform="matrix(.99998 0 0 1.00002 115.367 103.387)">
        <tspan
            style="font-style:normal;font-variant:normal;font-weight:400;font-stretch:normal;font-size:8.46667px;font-family:'Comic Sans MS';-inkscape-font-specification:'Comic Sans MS';font-variant-ligatures:normal;font-variant-caps:normal;font-variant-numeric:normal;font-variant-east-asian:normal;baseline-shift:baseline;stroke-width:.999985"
            x="-76.365" y="5.584">13</tspan>
    </text><text xml:space="preserve"
        style="font-size:8.46667px;fill:#fff;stroke:#000;stroke-width:.999985;stroke-dasharray:none;stroke-opacity:1"
        x="-59.248" y="19.787" transform="matrix(.99998 0 0 1.00002 115.367 103.387)">
        <tspan
            style="font-style:normal;font-variant:normal;font-weight:400;font-stretch:normal;font-size:8.46667px;font-family:'Comic Sans MS';-inkscape-font-specification:'Comic Sans MS';font-variant-ligatures:normal;font-variant-caps:normal;font-variant-numeric:normal;font-variant-east-asian:normal;baseline-shift:baseline;stroke-width:.999985"
            x="-59.248" y="19.787">14</tspan>
    </text><text xml:space="preserve"
        style="font-size:8.46667px;fill:#fff;stroke:#000;stroke-width:.999985;stroke-dasharray:none;stroke-opacity:1"
        x="-37.629" y="40.309" transform="matrix(.99998 0 0 1.00002 115.367 103.387)">
        <tspan
            style="font-style:normal;font-variant:normal;font-weight:400;font-stretch:normal;font-size:8.46667px;font-family:'Comic Sans MS';-inkscape-font-specification:'Comic Sans MS';font-variant-ligatures:normal;font-variant-caps:normal;font-variant-numeric:normal;font-variant-east-asian:normal;baseline-shift:baseline;stroke-width:.999985"
            x="-37.629" y="40.309">15</tspan>
    </text><text xml:space="preserve"
        style="font-style:normal;font-variant:normal;font-weight:400;font-stretch:normal;font-size:8.46667px;font-family:'Comic Sans MS';-inkscape-font-specification:'Comic Sans MS';font-variant-ligatures:normal;font-variant-caps:normal;font-variant-numeric:normal;font-variant-east-asian:normal;fill:#fff;stroke:#000;stroke-width:1;stroke-dasharray:none;stroke-opacity:1"
        x="-52.114" y="20.661" transform="translate(115.367 103.387)" /><text xml:space="preserve"
        style="font-size:8.46667px;fill:#fff;stroke:#000;stroke-width:.999985;stroke-dasharray:none;stroke-opacity:1"
        x="-12.901" y="48.933" transform="matrix(.99998 0 0 1.00002 115.367 103.387)">
        <tspan
            style="font-style:normal;font-variant:normal;font-weight:400;font-stretch:normal;font-size:8.46667px;font-family:'Comic Sans MS';-inkscape-font-specification:'Comic Sans MS';font-variant-ligatures:normal;font-variant-caps:normal;font-variant-numeric:normal;font-variant-east-asian:normal;baseline-shift:baseline;stroke-width:.999985"
            x="-12.901" y="48.933">16</tspan>
    </text><text xml:space="preserve"
        style="font-size:8.46667px;fill:#fff;stroke:#000;stroke-width:.999985;stroke-dasharray:none;stroke-opacity:1"
        x="-29.709" y="68.262" transform="matrix(.99998 0 0 1.00002 115.367 103.387)">
        <tspan
            style="font-style:normal;font-variant:normal;font-weight:400;font-stretch:normal;font-size:8.46667px;font-family:'Comic Sans MS';-inkscape-font-specification:'Comic Sans MS';font-variant-ligatures:normal;font-variant-caps:normal;font-variant-numeric:normal;font-variant-east-asian:normal;baseline-shift:baseline;stroke-width:.999985"
            x="-29.709" y="68.262">19</tspan>
    </text><text xml:space="preserve"
        style="font-size:8.46667px;fill:#fff;stroke:#000;stroke-width:.999985;stroke-dasharray:none;stroke-opacity:1"
        x="-29.09" y="94.691" transform="matrix(.99998 0 0 1.00002 115.367 103.387)">
        <tspan
            style="font-style:normal;font-variant:normal;font-weight:400;font-stretch:normal;font-size:8.46667px;font-family:'Comic Sans MS';-inkscape-font-specification:'Comic Sans MS';font-variant-ligatures:normal;font-variant-caps:normal;font-variant-numeric:normal;font-variant-east-asian:normal;baseline-shift:baseline;stroke-width:.999985"
            x="-29.09" y="94.691">23</tspan>
    </text><text xml:space="preserve"
        style="font-size:8.46667px;fill:#fff;stroke:#000;stroke-width:.999985;stroke-dasharray:none;stroke-opacity:1"
        x="-7.843" y="100.709" transform="matrix(.99998 0 0 1.00002 115.367 103.387)">
        <tspan
            style="font-style:normal;font-variant:normal;font-weight:400;font-stretch:normal;font-size:8.46667px;font-family:'Comic Sans MS';-inkscape-font-specification:'Comic Sans MS';font-variant-ligatures:normal;font-variant-caps:normal;font-variant-numeric:normal;font-variant-east-asian:normal;baseline-shift:baseline;stroke-width:.999985"
            x="-7.843" y="100.709">24</tspan>
    </text><text xml:space="preserve"
        style="font-size:8.46667px;fill:#fff;stroke:#000;stroke-width:.999985;stroke-dasharray:none;stroke-opacity:1"
        x="6.917" y="31.541" transform="matrix(.99998 0 0 1.00002 115.367 103.387)">
        <tspan
            style="font-style:normal;font-variant:normal;font-weight:400;font-stretch:normal;font-size:8.46667px;font-family:'Comic Sans MS';-inkscape-font-specification:'Comic Sans MS';font-variant-ligatures:normal;font-variant-caps:normal;font-variant-numeric:normal;font-variant-east-asian:normal;baseline-shift:baseline;stroke-width:.999985"
            x="6.917" y="31.541">17</tspan>
    </text><text xml:space="preserve"
        style="font-size:8.46667px;fill:#fff;stroke:#000;stroke-width:.999985;stroke-dasharray:none;stroke-opacity:1"
        x="28.307" y="47.798" transform="matrix(.99998 0 0 1.00002 115.367 103.387)">
        <tspan
            style="font-style:normal;font-variant:normal;font-weight:400;font-stretch:normal;font-size:8.46667px;font-family:'Comic Sans MS';-inkscape-font-specification:'Comic Sans MS';font-variant-ligatures:normal;font-variant-caps:normal;font-variant-numeric:normal;font-variant-east-asian:normal;baseline-shift:baseline;stroke-width:.999985"
            x="28.307" y="47.798">18</tspan>
    </text><text xml:space="preserve"
        style="font-size:8.46667px;fill:#fff;stroke:#000;stroke-width:.999985;stroke-dasharray:none;stroke-opacity:1"
        x="39.272" y="41.48" transform="matrix(.99998 0 0 1.00002 67.252 137.928)">
        <tspan
            style="font-style:normal;font-variant:normal;font-weight:400;font-stretch:normal;font-size:8.46667px;font-family:'Comic Sans MS';-inkscape-font-specification:'Comic Sans MS';font-variant-ligatures:normal;font-variant-caps:normal;font-variant-numeric:normal;font-variant-east-asian:normal;baseline-shift:baseline;stroke-width:.999985"
            x="39.272" y="41.48">20</tspan>
    </text><text xml:space="preserve"
        style="font-size:8.46667px;fill:#fff;stroke:#000;stroke-width:.999985;stroke-dasharray:none;stroke-opacity:1"
        x="54.53" y="24.687" transform="matrix(.99998 0 0 1.00002 67.252 137.928)">
        <tspan
            style="font-style:normal;font-variant:normal;font-weight:400;font-stretch:normal;font-size:8.46667px;font-family:'Comic Sans MS';-inkscape-font-specification:'Comic Sans MS';font-variant-ligatures:normal;font-variant-caps:normal;font-variant-numeric:normal;font-variant-east-asian:normal;baseline-shift:baseline;stroke-width:.999985"
            x="54.53" y="24.687">21</tspan>
    </text><text xml:space="preserve"
        style="font-size:8.46667px;fill:#fff;stroke:#000;stroke-width:.999985;stroke-dasharray:none;stroke-opacity:1"
        x="39.272" y="41.48" transform="matrix(.99998 0 0 1.00002 100.039 136.338)">
        <tspan
            style="font-style:normal;font-variant:normal;font-weight:400;font-stretch:normal;font-size:8.46667px;font-family:'Comic Sans MS';-inkscape-font-specification:'Comic Sans MS';font-variant-ligatures:normal;font-variant-caps:normal;font-variant-numeric:normal;font-variant-east-asian:normal;baseline-shift:baseline;stroke-width:.999985"
            x="39.272" y="41.48">22</tspan>
    </text><text xml:space="preserve"
        style="font-size:8.46667px;fill:#fff;stroke:#000;stroke-width:.999985;stroke-dasharray:none;stroke-opacity:1"
        x="48.692" y="57.043" transform="matrix(.99998 0 0 1.00002 79.447 137.847)">
        <tspan
            style="font-style:normal;font-variant:normal;font-weight:400;font-stretch:normal;font-size:8.46667px;font-family:'Comic Sans MS';-inkscape-font-specification:'Comic Sans MS';font-variant-ligatures:normal;font-variant-caps:normal;font-variant-numeric:normal;font-variant-east-asian:normal;baseline-shift:baseline;stroke-width:.999985"
            x="48.692" y="57.043">25</tspan>
    </text><text xml:space="preserve"
        style="font-size:8.46667px;fill:#fff;stroke:#000;stroke-width:.999985;stroke-dasharray:none;stroke-opacity:1"
        x="-23.129" y="119.741" transform="matrix(.99998 0 0 1.00002 115.367 103.387)">
        <tspan
            style="font-style:normal;font-variant:normal;font-weight:400;font-stretch:normal;font-size:8.46667px;font-family:'Comic Sans MS';-inkscape-font-specification:'Comic Sans MS';font-variant-ligatures:normal;font-variant-caps:normal;font-variant-numeric:normal;font-variant-east-asian:normal;baseline-shift:baseline;stroke-width:.999985"
            x="-23.129" y="119.741">26</tspan>
    </text><text xml:space="preserve"
        style="font-size:8.46667px;fill:#fff;stroke:#000;stroke-width:.999985;stroke-dasharray:none;stroke-opacity:1"
        x="-29.09" y="94.691" transform="matrix(.99998 0 0 1.00002 148.48 132.539)">
        <tspan
            style="font-style:normal;font-variant:normal;font-weight:400;font-stretch:normal;font-size:8.46667px;font-family:'Comic Sans MS';-inkscape-font-specification:'Comic Sans MS';font-variant-ligatures:normal;font-variant-caps:normal;font-variant-numeric:normal;font-variant-east-asian:normal;baseline-shift:baseline;stroke-width:.999985"
            x="-29.09" y="94.691">27</tspan>
    </text><text xml:space="preserve"
        style="font-size:8.46667px;fill:#fff;stroke:#000;stroke-width:.999985;stroke-dasharray:none;stroke-opacity:1"
        x="20.238" y="107.936" transform="matrix(.99998 0 0 1.00002 115.367 103.387)">
        <tspan
            style="font-style:normal;font-variant:normal;font-weight:400;font-stretch:normal;font-size:8.46667px;font-family:'Comic Sans MS';-inkscape-font-specification:'Comic Sans MS';font-variant-ligatures:normal;font-variant-caps:normal;font-variant-numeric:normal;font-variant-east-asian:normal;baseline-shift:baseline;stroke-width:.999985"
            x="20.238" y="107.936">28</tspan>
    </text><text xml:space="preserve"
        style="font-size:8.46667px;fill:#fff;stroke:#000;stroke-width:.999985;stroke-dasharray:none;stroke-opacity:1"
        x="17.541" y="101.188" transform="matrix(.99998 0 0 1.00002 82.093 147.108)">
        <tspan
            style="font-style:normal;font-variant:normal;font-weight:400;font-stretch:normal;font-size:8.46667px;font-family:'Comic Sans MS';-inkscape-font-specification:'Comic Sans MS';font-variant-ligatures:normal;font-variant-caps:normal;font-variant-numeric:normal;font-variant-east-asian:normal;baseline-shift:baseline;stroke-width:.999985"
            x="17.541" y="101.188">29</tspan>
    </text><text xml:space="preserve"
        style="font-size:8.46667px;fill:#fff;stroke:#000;stroke-width:.999985;stroke-dasharray:none;stroke-opacity:1"
        x="7.04" y="148.868" transform="matrix(.99998 0 0 1.00002 115.367 103.387)">
        <tspan
            style="font-style:normal;font-variant:normal;font-weight:400;font-stretch:normal;font-size:8.46667px;font-family:'Comic Sans MS';-inkscape-font-specification:'Comic Sans MS';font-variant-ligatures:normal;font-variant-caps:normal;font-variant-numeric:normal;font-variant-east-asian:normal;baseline-shift:baseline;stroke-width:.999985"
            x="7.04" y="148.868">30</tspan>
    </text><text xml:space="preserve"
        style="font-size:8.46667px;fill:#fff;stroke:#000;stroke-width:.999985;stroke-dasharray:none;stroke-opacity:1"
        x="-9.169" y="172.048" transform="matrix(.99998 0 0 1.00002 115.367 103.387)">
        <tspan
            style="font-style:normal;font-variant:normal;font-weight:400;font-stretch:normal;font-size:8.46667px;font-family:'Comic Sans MS';-inkscape-font-specification:'Comic Sans MS';font-variant-ligatures:normal;font-variant-caps:normal;font-variant-numeric:normal;font-variant-east-asian:normal;baseline-shift:baseline;stroke-width:.999985"
            x="-9.169" y="172.048">31</tspan>
    </text>
</svg>