<?xml version="1.0" encoding="UTF-8" standalone="no"?>
<!-- Created with Inkscape (http://www.inkscape.org/) -->

<svg
   width="210mm"
   height="297mm"
   viewBox="0 0 210 297"
   version="1.1"
   id="svg1"
   inkscape:version="1.3.2 (091e20e, 2023-11-25)"
   sodipodi:docname="line.svg"
   xmlns:inkscape="http://www.inkscape.org/namespaces/inkscape"
   xmlns:sodipodi="http://sodipodi.sourceforge.net/DTD/sodipodi-0.dtd"
   xmlns="http://www.w3.org/2000/svg"
   xmlns:svg="http://www.w3.org/2000/svg">
  <sodipodi:namedview
     id="namedview1"
     pagecolor="#ffffff"
     bordercolor="#000000"
     borderopacity="0.25"
     inkscape:showpageshadow="2"
     inkscape:pageopacity="0.0"
     inkscape:pagecheckerboard="0"
     inkscape:deskcolor="#d1d1d1"
     inkscape:document-units="mm"
     inkscape:zoom="0.43909281"
     inkscape:cx="499.89432"
     inkscape:cy="506.72659"
     inkscape:window-width="1728"
     inkscape:window-height="992"
     inkscape:window-x="0"
     inkscape:window-y="25"
     inkscape:window-maximized="0"
     inkscape:current-layer="layer1" />
  <defs
     id="defs1" />
  <g
     inkscape:label="Layer 1"
     inkscape:groupmode="layer"
     id="layer1">
    <path
       style="fill:#000000;stroke-width:0.264583"
       id="path2"
       d="m 223.43929,-24.93891 c -9.0264,9.239048 -16.78036,19.6519517 -23.89593,30.4087137 -2.26809,3.4287189 -4.41139,6.9383713 -6.61708,10.4075573 -8.23874,13.719205 -15.90308,27.826606 -22.19759,42.553801 -3.54546,8.295283 -4.24879,10.663716 -7.24095,19.053569 -0.95725,3.053543 -1.96472,6.091788 -2.87173,9.160626 -2.78119,9.410028 -5.10774,18.957303 -7.54424,28.459703 -3.10869,12.12394 -2.16763,8.47476 -5.44381,20.76696 -5.59133,20.63275 -11.03152,41.30739 -16.8645,61.87352 -0.99404,3.42308 -1.97488,6.85003 -2.9821,10.26926 -2.10699,7.15267 -4.09453,13.82925 -6.45101,20.90885 -3.90292,11.72561 -8.31523,23.27724 -12.65266,34.84593 -7.29712,18.65095 -14.831898,37.30887 -24.338372,54.97028 -0.994868,1.8483 -2.080379,3.64636 -3.12057,5.46952 -1.825612,2.48028 -4.703979,8.42108 -7.934746,9.59675 0,0 3.289589,2.1898 3.289589,2.1898 v 0 c 3.357025,-1.68735 5.686176,-7.19886 7.654062,-10.05689 0.992473,-1.85579 2.02593,-3.69025 2.977417,-5.56736 9.075552,-17.90465 16.50188,-36.60228 23.97644,-55.20971 4.43225,-11.5301 8.91309,-23.04471 12.84067,-34.76028 2.40517,-7.17437 4.34042,-13.65127 6.48224,-20.90094 1.00997,-3.4186 1.99223,-6.84532 2.98834,-10.26798 5.85622,-20.56383 11.24266,-41.25581 16.84368,-61.89009 3.1069,-11.51458 2.55616,-9.36352 5.5092,-20.73537 2.4638,-9.48784 4.80766,-19.019358 7.57129,-28.426491 0.90141,-3.068336 1.89392,-6.109176 2.84088,-9.163762 2.97135,-8.449876 3.62757,-10.714037 7.14928,-19.075934 6.21181,-14.749242 13.7599,-28.909049 22.07994,-42.569502 2.22808,-3.45147 4.38841,-6.947629 6.68424,-10.3544115 7.20972,-10.6985198 15.07379,-21.1311285 24.58567,-29.9031795 z" />
  </g>
</svg>
